<svg width="39" height="30" viewBox="0 0 39 30" fill="none" xmlns="http://www.w3.org/2000/svg">
<path d="M35.5723 0H3.42773C1.53387 0 0 1.6885 0 3.75V26.25C0 28.3238 1.54515 30 3.42773 30H35.5723C37.4503 30 39 28.3308 39 26.25V3.75C39 1.69217 37.4722 0 35.5723 0ZM35.0922 2.5C34.3919 3.26208 22.3399 16.3778 21.9238 16.8306C21.2763 17.5389 20.4156 17.9289 19.5 17.9289C18.5844 17.9289 17.7237 17.5388 17.0741 16.8283C16.7942 16.5237 4.87523 3.55283 3.90777 2.5H35.0922ZM2.28516 25.7412V4.26042L12.1599 15.0067L2.28516 25.7412ZM3.90922 27.5L13.7801 16.7698L15.4604 18.5983C16.5394 19.7788 17.974 20.4289 19.5 20.4289C21.026 20.4289 22.4606 19.7788 23.5375 18.6007L25.2199 16.7698L35.0908 27.5H3.90922ZM36.7148 25.7412L26.8401 15.0067L36.7148 4.26042V25.7412Z" fill="#C2CACC"/>
</svg>
