<svg width="129" height="34" viewBox="0 0 129 34" fill="none" xmlns="http://www.w3.org/2000/svg">
<g clip-path="url(#clip0)">
<path d="M41 16.5C41 7.3873 48.3873 0 57.5 0H112.34L116.287 1.44878C121.193 3.2497 125.199 6.89949 127.448 11.617L128 12.7742V22.8871L127.846 23.1703C125.342 27.7652 121.137 31.196 116.134 32.7266L115.24 33H57.5C48.3873 33 41 25.6127 41 16.5Z" fill="white"/>
<path d="M54.1318 32.137C60.4639 30.0047 65.0595 23.9919 65.0595 16.9512C65.0595 10.0203 60.6067 4.0836 54.4276 1.86568H112.036C120.364 1.86568 127.139 8.65549 127.139 17.0015C127.139 25.3472 120.364 32.137 112.036 32.137H54.1318ZM112.036 0.00266647H16.9617C7.60894 0.00266647 0 7.62817 0 17.0015C0 26.3745 7.60894 34 16.9617 34H112.036C121.389 34 128.998 26.3745 128.998 17.0015C128.998 7.62817 121.389 0.00266647 112.036 0.00266647Z" fill="#459EDC"/>
<path d="M16.8477 24.5371C14.6789 24.5371 12.8603 23.8077 11.3927 22.3473C9.92517 20.888 9.19125 19.0604 9.19125 16.8648C9.19125 14.6697 9.92517 12.8421 11.3927 11.3818C12.8603 9.92214 14.6789 9.19203 16.8477 9.19203C18.3803 9.19203 19.7661 9.57649 21.0039 10.3445C22.2413 11.1132 23.1563 12.1449 23.7476 13.4401L21.9402 14.0329C21.4803 13.1109 20.7956 12.3754 19.8869 11.8264C18.9777 11.2777 17.9645 11.0031 16.8477 11.0031C15.2046 11.0031 13.8351 11.5632 12.7403 12.6827C11.6442 13.8022 11.0972 15.1968 11.0972 16.8648C11.0972 18.5332 11.6442 19.9274 12.7403 21.0469C13.8351 22.1666 15.2046 22.7265 16.8477 22.7265C17.9645 22.7265 18.9777 22.4517 19.8869 21.9027C20.7956 21.3545 21.4803 20.6187 21.9402 19.6969L23.7476 20.2893C23.1563 21.5852 22.2413 22.6166 21.0039 23.3848C19.7661 24.1533 18.3803 24.5371 16.8477 24.5371Z" fill="#FAFAFA"/>
<path d="M16.8477 24.5371C14.6789 24.5371 12.8603 23.8077 11.3927 22.3473C9.92517 20.888 9.19125 19.0604 9.19125 16.8648C9.19125 14.6697 9.92517 12.8421 11.3927 11.3818C12.8603 9.92214 14.6789 9.19203 16.8477 9.19203C18.3803 9.19203 19.7661 9.57649 21.0039 10.3445C22.2413 11.1132 23.1563 12.1449 23.7476 13.4401L21.9402 14.0329C21.4803 13.1109 20.7956 12.3754 19.8869 11.8264C18.9777 11.2777 17.9645 11.0031 16.8477 11.0031C15.2046 11.0031 13.8351 11.5632 12.7403 12.6827C11.6442 13.8022 11.0972 15.1968 11.0972 16.8648C11.0972 18.5332 11.6442 19.9274 12.7403 21.0469C13.8351 22.1666 15.2046 22.7265 16.8477 22.7265C17.9645 22.7265 18.9777 22.4517 19.8869 21.9027C20.7956 21.3545 21.4803 20.6187 21.9402 19.6969L23.7476 20.2893C23.1563 21.5852 22.2413 22.6166 21.0039 23.3848C19.7661 24.1533 18.3803 24.5371 16.8477 24.5371Z" stroke="#FAFAFA" stroke-width="3.06667" stroke-miterlimit="10"/>
<path d="M37.8932 12.6827C36.83 11.5632 35.4995 11.0031 33.9007 11.0031C32.3012 11.0031 30.9648 11.5632 29.892 12.6827C28.8185 13.8022 28.2822 15.1968 28.2822 16.8648C28.2822 18.5332 28.8185 19.9274 29.892 21.0469C30.9648 22.1666 32.3012 22.7265 33.9007 22.7265C35.4995 22.7265 36.83 22.1666 37.8932 21.0469C38.9553 19.9274 39.4865 18.5332 39.4865 16.8648C39.4865 15.1968 38.9553 13.8022 37.8932 12.6827ZM28.479 22.3473C27.077 20.888 26.3762 19.0604 26.3762 16.8648C26.3762 14.6697 27.077 12.8421 28.479 11.3818C29.8809 9.92214 31.622 9.19203 33.7037 9.19203C34.9079 9.19203 36.0143 9.45546 37.0222 9.98232C38.0297 10.5092 38.8732 11.2338 39.5524 12.1556V9.45546H41.3596V24.2734H39.5524V21.5737C38.1502 23.5493 36.2009 24.5371 33.7037 24.5371C31.622 24.5371 29.8809 23.8077 28.479 22.3473Z" fill="#FAFAFA"/>
<path d="M37.8932 12.6827C36.83 11.5632 35.4995 11.0031 33.9007 11.0031C32.3012 11.0031 30.9648 11.5632 29.892 12.6827C28.8185 13.8022 28.2822 15.1968 28.2822 16.8648C28.2822 18.5332 28.8185 19.9274 29.892 21.0469C30.9648 22.1666 32.3012 22.7265 33.9007 22.7265C35.4995 22.7265 36.83 22.1666 37.8932 21.0469C38.9553 19.9274 39.4865 18.5332 39.4865 16.8648C39.4865 15.1968 38.9553 13.8022 37.8932 12.6827ZM28.479 22.3473C27.077 20.888 26.3762 19.0604 26.3762 16.8648C26.3762 14.6697 27.077 12.8421 28.479 11.3818C29.8809 9.92214 31.622 9.19203 33.7037 9.19203C34.9079 9.19203 36.0143 9.45546 37.0222 9.98232C38.0297 10.5092 38.8732 11.2338 39.5524 12.1556V9.45546H41.3596V24.2734H39.5524V21.5737C38.1502 23.5493 36.2009 24.5371 33.7037 24.5371C31.622 24.5371 29.8809 23.8077 28.479 22.3473V22.3473Z" stroke="#FAFAFA" stroke-width="3.06667" stroke-miterlimit="10"/>
<path d="M46.0255 24.2739V9.45595H47.833V12.3208C48.9713 10.2356 50.998 9.19252 53.9114 9.19252V11.2013C53.6487 11.1137 53.353 11.0696 53.0242 11.0696C51.5565 11.0696 50.3242 11.5195 49.3279 12.4195C48.3308 13.3202 47.833 14.4398 47.833 15.7785V24.2739H46.0255Z" fill="#FAFAFA"/>
<path d="M46.0255 24.2739V9.45595H47.833V12.3208C48.9713 10.2356 50.998 9.19252 53.9114 9.19252V11.2013C53.6487 11.1137 53.353 11.0696 53.0242 11.0696C51.5565 11.0696 50.3242 11.5195 49.3279 12.4195C48.3308 13.3202 47.833 14.4398 47.833 15.7785V24.2739H46.0255Z" stroke="#FAFAFA" stroke-width="3.06667" stroke-miterlimit="10"/>
<path d="M73.0494 24.5146V9.69618H74.8563V12.5611C75.9952 10.4758 77.8796 9.43275 80.5082 9.43275C82.2383 9.43275 83.6734 10.004 84.813 11.1454C85.9513 12.2869 86.5207 13.7031 86.5207 15.3931V24.5146H84.7138V15.8541C84.7138 14.5152 84.2708 13.4011 83.3834 12.5116C82.4961 11.6225 81.3838 11.1781 80.0478 11.1781C78.5804 11.1781 77.3479 11.6341 76.3515 12.5448C75.3545 13.4559 74.8563 14.5812 74.8563 15.9198V24.5146H73.0494Z" fill="#459EDC"/>
<path d="M73.0494 24.5146V9.69618H74.8563V12.5611C75.9952 10.4758 77.8796 9.43275 80.5082 9.43275C82.2383 9.43275 83.6734 10.004 84.813 11.1454C85.9513 12.2869 86.5207 13.7031 86.5207 15.3931V24.5146H84.7138V15.8541C84.7138 14.5152 84.2708 13.4011 83.3834 12.5116C82.4961 11.6225 81.3838 11.1781 80.0478 11.1781C78.5804 11.1781 77.3479 11.6341 76.3515 12.5448C75.3545 13.4559 74.8563 14.5812 74.8563 15.9198V24.5146H73.0494Z" stroke="#459EDC" stroke-width="3.06667" stroke-miterlimit="10"/>
<path d="M97.6931 11.1451C96.2475 11.1451 94.9989 11.6171 93.9473 12.5608C92.8964 13.5052 92.2718 14.713 92.0741 16.1833H103.41C103.214 14.713 102.583 13.5052 101.521 12.5608C100.459 11.6171 99.1828 11.1451 97.6931 11.1451ZM92.4192 22.5881C90.9407 21.1284 90.2015 19.3009 90.2015 17.1053C90.2015 14.9102 90.9184 13.0828 92.3542 11.6222C93.7881 10.1626 95.5789 9.43251 97.726 9.43251C99.8725 9.43251 101.669 10.1626 103.115 11.6222C104.561 13.0828 105.284 14.899 105.284 17.0723C105.284 17.3357 105.272 17.5334 105.25 17.6649H92.0419C92.1503 19.2242 92.7644 20.5135 93.8816 21.5346C94.9989 22.5548 96.3677 23.0655 97.9887 23.0655C100.092 23.0655 101.713 22.2427 102.852 20.596L104.593 21.1884C103.936 22.3079 103.027 23.186 101.866 23.8228C100.705 24.4596 99.4127 24.7773 97.9887 24.7773C95.7548 24.7773 93.8984 24.0479 92.4192 22.5881Z" fill="#459EDC"/>
<path d="M97.6931 11.1451C96.2475 11.1451 94.9989 11.6171 93.9473 12.5608C92.8964 13.5052 92.2718 14.713 92.0741 16.1833H103.41C103.214 14.713 102.583 13.5052 101.521 12.5608C100.459 11.6171 99.1828 11.1451 97.6931 11.1451ZM92.4192 22.5881C90.9407 21.1284 90.2015 19.3009 90.2015 17.1053C90.2015 14.9102 90.9184 13.0828 92.3542 11.6222C93.7881 10.1626 95.5789 9.43251 97.726 9.43251C99.8725 9.43251 101.669 10.1626 103.115 11.6222C104.561 13.0828 105.284 14.899 105.284 17.0723C105.284 17.3357 105.272 17.5334 105.25 17.6649H92.0419C92.1503 19.2242 92.7644 20.5135 93.8816 21.5346C94.9989 22.5548 96.3677 23.0655 97.9887 23.0655C100.092 23.0655 101.713 22.2427 102.852 20.596L104.593 21.1884C103.936 22.3079 103.027 23.186 101.866 23.8228C100.705 24.4596 99.4127 24.7773 97.9887 24.7773C95.7548 24.7773 93.8984 24.0479 92.4192 22.5881Z" stroke="#459EDC" stroke-width="3.06667" stroke-miterlimit="10"/>
<path d="M109.423 11.31H106.893V9.69618H109.423V6.53508H111.23V9.69618H115.633V11.31H111.23V20.1351C111.23 20.8815 111.449 21.5074 111.888 22.0117C112.326 22.5175 112.862 22.7691 113.498 22.7691H115.633V24.5146H113.399C112.26 24.5146 111.313 24.1142 110.557 23.3124C109.801 22.5114 109.423 21.5181 109.423 20.3328V11.31Z" fill="#459EDC"/>
<path d="M109.423 11.31H106.893V9.69618H109.423V6.53508H111.23V9.69618H115.633V11.31H111.23V20.1351C111.23 20.8815 111.449 21.5074 111.888 22.0117C112.326 22.5175 112.862 22.7691 113.498 22.7691H115.633V24.5146H113.399C112.26 24.5146 111.313 24.1142 110.557 23.3124C109.801 22.5114 109.423 21.5181 109.423 20.3328V11.31Z" stroke="#459EDC" stroke-width="3.06667" stroke-miterlimit="10"/>
</g>
<defs>
<clipPath id="clip0">
<rect width="129" height="34" fill="white"/>
</clipPath>
</defs>
</svg>
