<svg width="187" height="49" viewBox="0 0 187 49" fill="none" xmlns="http://www.w3.org/2000/svg">
<path d="M78.4701 46.3148C87.6493 43.2418 94.3111 34.5763 94.3111 24.4295C94.3111 14.4407 87.8562 5.88494 78.8989 2.68853H162.409C174.482 2.68853 184.303 12.4739 184.303 24.5019C184.303 36.5295 174.482 46.3148 162.409 46.3148H78.4701ZM162.409 0.00359726H24.5878C11.03 0.00359726 0 10.9933 0 24.5019C0 38.0101 11.03 48.9998 24.5878 48.9998H162.409C175.968 48.9998 186.997 38.0101 186.997 24.5019C186.997 10.9933 175.968 0.00359726 162.409 0.00359726Z" fill="#459EDC"/>
<path d="M24.4226 35.3625C21.2786 35.3625 18.6424 34.3113 16.515 32.2067C14.3876 30.1035 13.3237 27.4697 13.3237 24.3054C13.3237 21.1419 14.3876 18.508 16.515 16.4034C18.6424 14.2998 21.2786 13.2476 24.4226 13.2476C26.6443 13.2476 28.6531 13.8017 30.4475 14.9085C32.2413 16.0164 33.5676 17.5032 34.4248 19.3698L31.8047 20.2242C31.138 18.8953 30.1455 17.8353 28.8283 17.0442C27.5103 16.2534 26.0415 15.8577 24.4226 15.8577C22.0407 15.8577 20.0555 16.6649 18.4684 18.2782C16.8796 19.8917 16.0866 21.9016 16.0866 24.3054C16.0866 26.7099 16.8796 28.7191 18.4684 30.3325C20.0555 31.9462 22.0407 32.7532 24.4226 32.7532C26.0415 32.7532 27.5103 32.357 28.8283 31.5659C30.1455 30.7758 31.138 29.7154 31.8047 28.387L34.4248 29.2407C33.5676 31.1083 32.2413 32.5947 30.4475 33.7019C28.6531 34.8095 26.6443 35.3625 24.4226 35.3625Z" fill="#FAFAFA"/>
<path d="M24.4226 35.3625C21.2786 35.3625 18.6424 34.3113 16.515 32.2067C14.3876 30.1035 13.3237 27.4697 13.3237 24.3054C13.3237 21.1419 14.3876 18.508 16.515 16.4034C18.6424 14.2998 21.2786 13.2476 24.4226 13.2476C26.6443 13.2476 28.6531 13.8017 30.4475 14.9085C32.2413 16.0164 33.5676 17.5032 34.4248 19.3698L31.8047 20.2242C31.138 18.8953 30.1455 17.8353 28.8283 17.0442C27.5103 16.2534 26.0415 15.8577 24.4226 15.8577C22.0407 15.8577 20.0555 16.6649 18.4684 18.2782C16.8796 19.8917 16.0866 21.9016 16.0866 24.3054C16.0866 26.7099 16.8796 28.7191 18.4684 30.3325C20.0555 31.9462 22.0407 32.7532 24.4226 32.7532C26.0415 32.7532 27.5103 32.357 28.8283 31.5659C30.1455 30.7758 31.138 29.7154 31.8047 28.387L34.4248 29.2407C33.5676 31.1083 32.2413 32.5947 30.4475 33.7019C28.6531 34.8095 26.6443 35.3625 24.4226 35.3625Z" stroke="#FAFAFA" stroke-width="3.06667" stroke-miterlimit="10"/>
<path d="M54.9304 18.2782C53.3892 16.6649 51.4605 15.8577 49.1429 15.8577C46.8242 15.8577 44.887 16.6649 43.3318 18.2782C41.7757 19.8917 40.9982 21.9016 40.9982 24.3054C40.9982 26.7099 41.7757 28.7191 43.3318 30.3325C44.887 31.9462 46.8242 32.7532 49.1429 32.7532C51.4605 32.7532 53.3892 31.9462 54.9304 30.3325C56.47 28.7191 57.2402 26.7099 57.2402 24.3054C57.2402 21.9016 56.47 19.8917 54.9304 18.2782ZM41.2835 32.2067C39.2511 30.1035 38.2353 27.4697 38.2353 24.3054C38.2353 21.1419 39.2511 18.508 41.2835 16.4034C43.3158 14.2998 45.8396 13.2476 48.8572 13.2476C50.6029 13.2476 52.2068 13.6272 53.6679 14.3865C55.1283 15.1458 56.3511 16.1901 57.3357 17.5186V13.6272H59.9553V34.9825H57.3357V31.0918C55.303 33.939 52.4773 35.3625 48.8572 35.3625C45.8396 35.3625 43.3158 34.3113 41.2835 32.2067Z" fill="#FAFAFA"/>
<path d="M54.9304 18.2782C53.3892 16.6649 51.4605 15.8577 49.1429 15.8577C46.8242 15.8577 44.887 16.6649 43.3318 18.2782C41.7757 19.8917 40.9982 21.9016 40.9982 24.3054C40.9982 26.7099 41.7757 28.7191 43.3318 30.3325C44.887 31.9462 46.8242 32.7532 49.1429 32.7532C51.4605 32.7532 53.3892 31.9462 54.9304 30.3325C56.47 28.7191 57.2402 26.7099 57.2402 24.3054C57.2402 21.9016 56.47 19.8917 54.9304 18.2782ZM41.2835 32.2067C39.2511 30.1035 38.2353 27.4697 38.2353 24.3054C38.2353 21.1419 39.2511 18.508 41.2835 16.4034C43.3158 14.2998 45.8396 13.2476 48.8572 13.2476C50.6029 13.2476 52.2068 13.6272 53.6679 14.3865C55.1283 15.1458 56.3511 16.1901 57.3357 17.5186V13.6272H59.9553V34.9825H57.3357V31.0918C55.303 33.939 52.4773 35.3625 48.8572 35.3625C45.8396 35.3625 43.3158 34.3113 41.2835 32.2067V32.2067Z" stroke="#FAFAFA" stroke-width="3.06667" stroke-miterlimit="10"/>
<path d="M66.7192 34.9824V13.6271H69.3392V17.7559C70.9894 14.7507 73.9274 13.2475 78.1506 13.2475V16.1424C77.7698 16.0162 77.3411 15.9526 76.8646 15.9526C74.7369 15.9526 72.9505 16.6011 71.5063 17.8981C70.061 19.1962 69.3392 20.8097 69.3392 22.739V34.9824H66.7192Z" fill="#FAFAFA"/>
<path d="M66.7192 34.9824V13.6271H69.3392V17.7559C70.9894 14.7507 73.9274 13.2475 78.1506 13.2475V16.1424C77.7698 16.0162 77.3411 15.9526 76.8646 15.9526C74.7369 15.9526 72.9505 16.6011 71.5063 17.8981C70.061 19.1962 69.3392 20.8097 69.3392 22.739V34.9824H66.7192Z" stroke="#FAFAFA" stroke-width="3.06667" stroke-miterlimit="10"/>
<path d="M105.893 35.3296V13.9736H108.513V18.1024C110.164 15.0971 112.895 13.5939 116.706 13.5939C119.214 13.5939 121.294 14.4172 122.946 16.0621C124.596 17.7073 125.422 19.7482 125.422 22.1839V35.3296H122.802V22.8482C122.802 20.9187 122.16 19.313 120.874 18.031C119.587 16.7497 117.975 16.1092 116.038 16.1092C113.911 16.1092 112.125 16.7665 110.68 18.0789C109.235 19.392 108.513 21.0138 108.513 22.9429V35.3296H105.893Z" fill="#459EDC"/>
<path d="M105.893 35.3296V13.9736H108.513V18.1024C110.164 15.0971 112.895 13.5939 116.706 13.5939C119.214 13.5939 121.294 14.4172 122.946 16.0621C124.596 17.7073 125.422 19.7482 125.422 22.1839V35.3296H122.802V22.8482C122.802 20.9187 122.16 19.313 120.874 18.031C119.587 16.7497 117.975 16.1092 116.038 16.1092C113.911 16.1092 112.125 16.7665 110.68 18.0789C109.235 19.392 108.513 21.0138 108.513 22.9429V35.3296H105.893Z" stroke="#459EDC" stroke-width="3.06667" stroke-miterlimit="10"/>
<path d="M141.617 16.062C139.522 16.062 137.712 16.7423 136.187 18.1023C134.664 19.4633 133.758 21.204 133.472 23.3229H149.905C149.62 21.204 148.706 19.4633 147.166 18.1023C145.626 16.7423 143.777 16.062 141.617 16.062ZM133.972 32.5533C131.829 30.4498 130.757 27.816 130.757 24.6517C130.757 21.4882 131.796 18.8546 133.878 16.7497C135.956 14.6461 138.552 13.5939 141.665 13.5939C144.776 13.5939 147.381 14.6461 149.477 16.7497C151.573 18.8546 152.621 21.4721 152.621 24.6042C152.621 24.9838 152.604 25.2688 152.572 25.4582H133.425C133.582 27.7054 134.472 29.5636 136.092 31.0351C137.712 32.5055 139.696 33.2414 142.046 33.2414C145.094 33.2414 147.444 32.0556 149.095 29.6824L151.619 30.5362C150.667 32.1496 149.349 33.4151 147.666 34.3328C145.983 35.2505 144.11 35.7085 142.046 35.7085C138.807 35.7085 136.116 34.6573 133.972 32.5533Z" fill="#459EDC"/>
<path d="M141.617 16.062C139.522 16.062 137.712 16.7423 136.187 18.1023C134.664 19.4633 133.758 21.204 133.472 23.3229H149.905C149.62 21.204 148.706 19.4633 147.166 18.1023C145.626 16.7423 143.777 16.062 141.617 16.062ZM133.972 32.5533C131.829 30.4498 130.757 27.816 130.757 24.6517C130.757 21.4882 131.796 18.8546 133.878 16.7497C135.956 14.6461 138.552 13.5939 141.665 13.5939C144.776 13.5939 147.381 14.6461 149.477 16.7497C151.573 18.8546 152.621 21.4721 152.621 24.6042C152.621 24.9838 152.604 25.2688 152.572 25.4582H133.425C133.582 27.7054 134.472 29.5636 136.092 31.0351C137.712 32.5055 139.696 33.2414 142.046 33.2414C145.094 33.2414 147.444 32.0556 149.095 29.6824L151.619 30.5362C150.667 32.1496 149.349 33.4151 147.666 34.3328C145.983 35.2505 144.11 35.7085 142.046 35.7085C138.807 35.7085 136.116 34.6573 133.972 32.5533Z" stroke="#459EDC" stroke-width="3.06667" stroke-miterlimit="10"/>
<path d="M158.62 16.2994H154.953V13.9736H158.62V9.41786H161.241V13.9736H167.624V16.2994H161.241V29.0179C161.241 30.0936 161.558 30.9956 162.194 31.7224C162.829 32.4513 163.606 32.8139 164.528 32.8139H167.624V35.3296H164.385C162.734 35.3296 161.36 34.7524 160.265 33.597C159.169 32.4426 158.62 31.011 158.62 29.3028V16.2994Z" fill="#459EDC"/>
<path d="M158.62 16.2994H154.953V13.9736H158.62V9.41786H161.241V13.9736H167.624V16.2994H161.241V29.0179C161.241 30.0936 161.558 30.9956 162.194 31.7224C162.829 32.4513 163.606 32.8139 164.528 32.8139H167.624V35.3296H164.385C162.734 35.3296 161.36 34.7524 160.265 33.597C159.169 32.4426 158.62 31.011 158.62 29.3028V16.2994Z" stroke="#459EDC" stroke-width="3.06667" stroke-miterlimit="10"/>
</svg>
