<svg width="20" height="20" viewBox="0 0 20 20" fill="none" xmlns="http://www.w3.org/2000/svg">
<path fill-rule="evenodd" clip-rule="evenodd" d="M10 0C4.47715 0 0 4.47715 0 10C0 15.5228 4.47715 20 10 20C15.5228 20 20 15.5228 20 10C20 4.47715 15.5228 0 10 0ZM10.8142 13.1567C10.7156 13.2606 10.5231 13.2816 10.5231 13.2816H9.88558C9.88558 13.2816 8.47905 13.3646 7.24 12.0987C5.88878 10.7175 4.69563 7.97725 4.69563 7.97725C4.69563 7.97725 4.62677 7.7975 4.70137 7.71095C4.78537 7.61314 5.0144 7.607 5.0144 7.607L6.5383 7.59727C6.5383 7.59727 6.68177 7.62031 6.78455 7.69457C6.86959 7.75602 6.91706 7.87022 6.91706 7.87022C6.91706 7.87022 7.16331 8.48167 7.48938 9.03475C8.12638 10.1148 8.42271 10.3509 8.6387 10.2351C8.95381 10.0666 8.85938 8.70854 8.85938 8.70854C8.85938 8.70854 8.86512 8.21589 8.70078 7.9962C8.57348 7.82618 8.3335 7.7765 8.22759 7.76268C8.14151 7.75141 8.28237 7.55578 8.46497 7.46821C8.73938 7.3366 9.22353 7.32892 9.79584 7.33455C10.2419 7.33916 10.3702 7.36631 10.5445 7.40779C10.9489 7.50358 10.9363 7.81058 10.909 8.47314C10.9009 8.6713 10.8914 8.90125 10.8914 9.16687C10.8914 9.22656 10.8897 9.29018 10.8878 9.35564C10.8784 9.69508 10.8675 10.0838 11.0954 10.2285C11.2123 10.3022 11.4976 10.2392 12.2119 9.04909C12.5505 8.48475 12.804 7.82157 12.804 7.82157C12.804 7.82157 12.8598 7.70327 12.9459 7.65257C13.0341 7.60085 13.153 7.61672 13.153 7.61672L14.7568 7.607C14.7568 7.607 15.2388 7.55015 15.3165 7.76421C15.3985 7.988 15.1366 8.51137 14.4813 9.36864C13.8597 10.1821 13.5572 10.4815 13.585 10.7464C13.6053 10.9399 13.8019 11.115 14.1792 11.4585C14.9669 12.1764 15.178 12.5541 15.2287 12.6448C15.2329 12.6523 15.2361 12.6579 15.2383 12.6615C15.5915 13.2366 14.8465 13.2816 14.8465 13.2816L13.4217 13.3011C13.4217 13.3011 13.116 13.3605 12.7132 13.0891C12.5022 12.947 12.2961 12.715 12.0997 12.494C11.7998 12.1565 11.5228 11.8448 11.2864 11.9184C10.8893 12.0423 10.9013 12.8817 10.9013 12.8817C10.9013 12.8817 10.9045 13.0614 10.8142 13.1567Z" fill="white"/>
</svg>
