<svg width="20" height="20" viewBox="0 0 20 20" fill="none" xmlns="http://www.w3.org/2000/svg">
<path fill-rule="evenodd" clip-rule="evenodd" d="M10 20C4.47715 20 0 15.5228 0 10C0 4.47715 4.47715 0 10 0C15.5228 0 20 4.47715 20 10C20 15.5228 15.5228 20 10 20ZM10.1393 9.43884C10.9581 9.43884 14.9393 7.20008 14.9393 7.20008L14.9457 6.80008C14.9457 6.35848 14.5873 6.00008 14.1445 6.00008H6.13411C5.69171 6.00008 5.33331 6.35848 5.33331 6.80008V7.15648C5.33331 7.15648 9.35811 9.43884 10.1393 9.43884ZM5.33971 8.40011C5.33931 8.40011 9.35811 10.5389 10.1393 10.5389C10.9957 10.5389 14.9393 8.40011 14.9393 8.40011L14.9457 13.2001C14.9457 13.6417 14.5873 14.0001 14.1445 14.0001H6.13411C5.69211 14.0001 5.33331 13.6417 5.33331 13.2001L5.33971 8.40011Z" fill="white"/>
</svg>
