<svg width="130" height="130" viewBox="0 0 130 130" fill="none" xmlns="http://www.w3.org/2000/svg">
<path d="M114.225 111.368C111.575 114.158 109.073 115.955 107.091 117.376C83.826 134.076 56.2956 129.21 50.4433 128.022C41.8017 126.267 25.1034 122.873 13.0275 108.666C-5.23953 87.1739 -2.39459 53.3137 11.7744 30.9632C14.3641 26.8728 28.0597 4.18331 55.8872 0.543331C72.7247 -1.65737 92.3562 2.78118 106.572 14.6993C136.413 39.7103 134.292 90.2382 114.225 111.368Z" fill="#E8F0F5"/>
<g opacity="0.3">
<path opacity="0.3" d="M40.9339 44.9773C40.623 45.1026 40.2656 44.9773 40.1078 44.6755C39.7597 44.0162 39.4349 43.3337 39.1425 42.6466C38.9986 42.3123 39.1564 41.9223 39.4906 41.783C39.4952 41.783 39.4999 41.7783 39.5045 41.7783C39.8386 41.6437 40.2146 41.8016 40.3584 42.1312C40.6369 42.7858 40.9478 43.4358 41.2774 44.058C41.4491 44.3783 41.3238 44.7776 41.0035 44.9494C40.9757 44.9587 40.9525 44.968 40.9339 44.9773ZM38.8269 39.6334C38.8037 39.6426 38.7805 39.6519 38.7526 39.6566C38.3999 39.7541 38.0379 39.5451 37.9451 39.1923C37.7502 38.4726 37.5831 37.7344 37.4485 37.0009C37.3835 36.6434 37.6202 36.2998 37.9776 36.2348C38.335 36.1698 38.6784 36.4066 38.7434 36.7641C38.8687 37.4605 39.0311 38.1616 39.2167 38.8441C39.3003 39.1737 39.1286 39.5126 38.8269 39.6334ZM37.9451 33.9598C37.8755 33.9877 37.8012 34.0016 37.727 34.0062C37.365 34.0202 37.0587 33.737 37.0401 33.3748C37.0076 32.6273 37.0123 31.8752 37.0448 31.1277C37.0633 30.7656 37.3696 30.4823 37.7316 30.5009C38.0936 30.5195 38.3767 30.8259 38.3582 31.188C38.3257 31.8984 38.3257 32.6134 38.3535 33.3238C38.3674 33.607 38.1957 33.8577 37.9451 33.9598ZM38.3535 28.2306C38.2421 28.277 38.1168 28.2909 37.9869 28.2677C37.6295 28.2027 37.3928 27.8545 37.4578 27.497C37.597 26.7634 37.7641 26.0252 37.9637 25.3056C38.0611 24.9574 38.4231 24.7484 38.7759 24.8459C39.1286 24.9434 39.3328 25.3056 39.2353 25.6584C39.045 26.3409 38.8826 27.042 38.7526 27.7384C38.7155 27.9706 38.5577 28.1516 38.3535 28.2306ZM40.0336 22.7381C39.8758 22.8031 39.6948 22.8031 39.5277 22.7335C39.1935 22.5895 39.0404 22.1995 39.1843 21.8652C39.4813 21.1828 39.8108 20.5003 40.1635 19.841C40.3352 19.5206 40.7344 19.3999 41.0546 19.5717C41.3748 19.7435 41.4955 20.1428 41.3238 20.4631C40.9896 21.0899 40.674 21.7352 40.3956 22.3852C40.3167 22.557 40.1867 22.6777 40.0336 22.7381ZM42.8831 17.7563C42.6789 17.8399 42.4376 17.8167 42.2473 17.6774C41.9549 17.4638 41.89 17.0506 42.1035 16.7581C42.5444 16.1546 43.0131 15.5649 43.505 15.0031C43.7464 14.7292 44.1594 14.7014 44.4332 14.9381C44.7071 15.1749 44.7349 15.5928 44.4982 15.8667C44.0341 16.4006 43.5839 16.9624 43.1662 17.5335C43.092 17.6356 42.9899 17.7099 42.8831 17.7563ZM64.6866 7.26355C64.6031 7.29605 64.5103 7.31462 64.4128 7.30998C63.7074 7.27748 62.988 7.27748 62.2779 7.30998C61.9159 7.32391 61.605 7.04534 61.5911 6.67855C61.5771 6.31641 61.8556 6.00534 62.2222 5.99142C62.9694 5.95892 63.7259 5.95892 64.4685 5.99142C64.8305 6.00534 65.1136 6.31641 65.0997 6.67855C65.0904 6.94784 64.9187 7.17069 64.6866 7.26355ZM46.763 13.5267C46.5078 13.6289 46.2108 13.5639 46.0205 13.3457C45.7838 13.0717 45.8116 12.6539 46.0854 12.4171C46.647 11.9296 47.2411 11.456 47.8444 11.0196C48.1414 10.806 48.5498 10.871 48.7633 11.1635C48.9768 11.456 48.9118 11.8692 48.6194 12.0828C48.0486 12.5007 47.487 12.9464 46.9487 13.4107C46.893 13.4617 46.828 13.5035 46.763 13.5267ZM58.9596 7.66283C58.9178 7.68141 58.8761 7.69069 58.8343 7.69998C58.1382 7.82998 57.4374 7.98783 56.7551 8.17819C56.4024 8.27569 56.0404 8.06676 55.9476 7.71855C55.8501 7.36569 56.059 7.00355 56.4071 6.9107C57.1264 6.71105 57.8643 6.54391 58.5976 6.40927C58.955 6.34427 59.2984 6.58105 59.3634 6.93855C59.4191 7.24498 59.2474 7.54676 58.9596 7.66283ZM51.4876 10.2767C51.1813 10.4021 50.8193 10.2767 50.6615 9.97496C50.4898 9.65461 50.6104 9.25532 50.9307 9.08354C51.5897 8.73069 52.2719 8.40569 52.9541 8.11319C52.9588 8.11319 52.9634 8.10855 52.9681 8.10855C53.2976 7.9739 53.6781 8.13176 53.822 8.4614C53.9659 8.79568 53.8081 9.18568 53.4739 9.32497C52.8196 9.60354 52.1745 9.91461 51.5479 10.2489C51.534 10.2535 51.5108 10.2675 51.4876 10.2767Z" fill="#91CEFA"/>
<path opacity="0.3" d="M69.2718 7.8812C69.1512 7.92763 69.0166 7.94156 68.8774 7.9137C68.5479 7.83941 68.2091 7.76977 67.8703 7.70477C67.5129 7.63977 67.2762 7.2962 67.3412 6.9387C67.4062 6.5812 67.7496 6.34442 68.1116 6.40942C68.4643 6.47442 68.8217 6.5487 69.1697 6.62763C69.5225 6.70656 69.7452 7.06406 69.6663 7.41691C69.6199 7.63513 69.4668 7.80227 69.2718 7.8812Z" fill="#91CEFA"/>
</g>
<g opacity="0.3">
<path opacity="0.3" d="M85.5622 19.6461C85.2652 19.7668 84.9217 19.6554 84.75 19.3768C84.5737 19.0843 84.3927 18.7918 84.2024 18.5086C84.0028 18.2068 84.0864 17.7936 84.388 17.5939C84.6943 17.3943 85.1027 17.4779 85.3023 17.7796C85.5019 18.0814 85.6968 18.3879 85.8778 18.6943C86.0634 19.0054 85.966 19.4093 85.655 19.5996C85.6225 19.6182 85.5947 19.6321 85.5622 19.6461Z" fill="#91CEFA"/>
<path opacity="0.3" d="M73.2123 56.7096C72.9292 56.821 72.6461 56.9325 72.3583 57.0393C72.0149 57.1646 71.639 56.9882 71.5137 56.6446C71.3883 56.301 71.5647 55.9203 71.9081 55.7996C72.5718 55.5582 73.2215 55.2889 73.8527 55.0011C74.1822 54.8478 74.5767 54.9918 74.7252 55.3214C74.8784 55.6511 74.7345 56.0457 74.405 56.1943C74.0152 56.3753 73.616 56.5518 73.2123 56.7096ZM69.0168 58.005C68.9843 58.0189 68.9472 58.0282 68.91 58.0375C68.1907 58.1953 67.4574 58.3207 66.7334 58.4182C66.3714 58.4646 66.0419 58.2092 65.9955 57.8517C65.9491 57.4896 66.2043 57.16 66.5617 57.1135C67.2532 57.0253 67.9494 56.9 68.6316 56.7514C68.9889 56.6725 69.337 56.9 69.4159 57.2575C69.4855 57.5732 69.3092 57.8889 69.0168 58.005ZM77.4449 54.5275C77.1571 54.6436 76.8183 54.5414 76.642 54.2721C76.447 53.9657 76.5352 53.5571 76.8415 53.3621C77.4263 52.9861 78.0064 52.5821 78.5587 52.155C78.8464 51.9321 79.2595 51.9879 79.4823 52.2757C79.705 52.5636 79.6493 52.9768 79.3616 53.1996C78.7768 53.6454 78.1689 54.0725 77.5516 54.4718C77.5191 54.495 77.482 54.5136 77.4449 54.5275ZM63.3965 58.59C63.3176 58.6225 63.2341 58.6364 63.1459 58.6364C62.4126 58.6317 61.6701 58.5946 60.9368 58.525C60.5748 58.4925 60.3056 58.1721 60.3427 57.81C60.3752 57.4478 60.6955 57.1785 61.0575 57.2157C61.7536 57.2807 62.4591 57.3132 63.1552 57.3178C63.5172 57.3225 63.8142 57.6196 63.8096 57.9818C63.8096 58.2603 63.6379 58.4925 63.3965 58.59ZM81.8306 50.9757C81.5939 51.0732 81.3155 51.0222 81.1205 50.8318C80.8606 50.5764 80.8606 50.1586 81.1159 49.8986C81.6032 49.4018 82.0812 48.8818 82.5268 48.3432C82.7588 48.0647 83.1765 48.0275 83.455 48.2597C83.7334 48.4918 83.7705 48.9097 83.5385 49.1882C83.0698 49.7547 82.5685 50.3025 82.0534 50.8271C81.9884 50.8921 81.9141 50.9432 81.8306 50.9757ZM85.3346 46.5465C85.1443 46.6207 84.9262 46.6115 84.7359 46.4954C84.4296 46.3004 84.3321 45.8965 84.527 45.5854C84.8983 44.9958 85.2464 44.3783 85.5666 43.7608C85.7337 43.4358 86.1282 43.3104 86.453 43.4776C86.7779 43.6447 86.9032 44.044 86.7361 44.3643C86.402 45.0143 86.0307 45.6643 85.6409 46.2865C85.5713 46.4072 85.4599 46.4954 85.3346 46.5465ZM87.7897 41.4533C87.6458 41.509 87.4833 41.5183 87.3256 41.4626C86.9821 41.3419 86.8011 40.9658 86.9218 40.6222C87.1538 39.9629 87.3627 39.2897 87.539 38.6119C87.6319 38.259 87.9892 38.0501 88.3419 38.1429C88.6947 38.2358 88.9035 38.5933 88.8107 38.9462C88.625 39.6565 88.4069 40.3669 88.1609 41.0586C88.096 41.249 87.9567 41.3883 87.7897 41.4533ZM89.0752 35.9515C88.9778 35.9933 88.8664 36.0072 88.7503 35.9933C88.3883 35.9515 88.1331 35.6219 88.1749 35.2597C88.2584 34.568 88.3141 33.8623 88.3373 33.1658C88.3512 32.8037 88.6575 32.5158 89.0195 32.5298C89.3815 32.5437 89.6693 32.8455 89.6553 33.2123C89.6321 33.9458 89.5718 34.6887 89.4836 35.4176C89.4511 35.6683 89.2887 35.8633 89.0752 35.9515ZM89.1216 30.2966C89.0659 30.3198 89.0056 30.3337 88.9406 30.343C88.5786 30.3801 88.2538 30.1155 88.2166 29.7534C88.147 29.0616 88.0449 28.3605 87.915 27.6734C87.8454 27.3159 88.082 26.9723 88.4394 26.9027C88.7968 26.833 89.1402 27.0698 89.2098 27.4273C89.3444 28.1516 89.4558 28.8851 89.53 29.6141C89.5625 29.9205 89.3862 30.1898 89.1216 30.2966ZM87.9242 24.7762C87.9103 24.7809 87.901 24.7855 87.8871 24.7902C87.5437 24.9062 87.1678 24.7205 87.0517 24.3723C86.8893 23.8848 86.7083 23.3973 86.518 22.9191C86.4484 22.7473 86.3788 22.5755 86.3045 22.4084C86.1607 22.0741 86.3138 21.6841 86.6526 21.5448C86.9868 21.3916 87.3766 21.5541 87.5158 21.8884C87.5947 22.0648 87.669 22.2459 87.7386 22.427C87.9382 22.9284 88.1284 23.4391 88.3002 23.9545C88.4162 24.2887 88.2445 24.6462 87.9242 24.7762Z" fill="#91CEFA"/>
<path opacity="0.3" d="M57.7717 57.9214C57.6511 57.9725 57.5118 57.9818 57.3772 57.9539C57.0292 57.875 56.6764 57.7821 56.3284 57.6846C55.9756 57.5871 55.7714 57.225 55.8689 56.8721C55.9664 56.5193 56.3284 56.315 56.6811 56.4125C57.0106 56.5054 57.3448 56.5889 57.6743 56.6679C58.027 56.7514 58.2498 57.1043 58.1662 57.4571C58.1198 57.6753 57.9667 57.8425 57.7717 57.9214Z" fill="#91CEFA"/>
</g>
<path d="M55.7385 50.4978C55.8546 50.5628 55.9984 50.5443 56.0959 50.4561L58.8759 47.9396C60.5605 48.4132 62.3334 48.6175 64.1341 48.5246L66.2922 51.5843C66.3664 51.6911 66.5057 51.7375 66.631 51.7003L70.9471 50.4468C71.0724 50.4096 71.1606 50.2982 71.1699 50.1682L71.3555 46.4261C72.9242 45.5439 74.3118 44.4204 75.486 43.1157L79.1802 43.7518C79.3102 43.775 79.4401 43.71 79.5005 43.5986L81.6678 39.6568C81.7328 39.5408 81.7142 39.3968 81.6261 39.2993L79.1106 36.5183C79.584 34.8329 79.7882 33.0594 79.6954 31.258L82.7538 29.099C82.8606 29.0248 82.907 28.8855 82.8698 28.7601L81.6168 24.4423C81.5796 24.3169 81.4683 24.2287 81.3383 24.2194L77.5977 24.0337C76.7159 22.4644 75.5928 21.0762 74.2886 19.9016L74.9244 16.2059C74.9477 16.0759 74.8827 15.9459 74.7713 15.8855L70.8311 13.7173C70.7151 13.6523 70.5712 13.6709 70.4737 13.7591L67.6938 16.2755C66.0091 15.802 64.2362 15.5977 62.4355 15.6905L60.2774 12.6309C60.2032 12.5241 60.064 12.4777 59.9387 12.5148L55.6225 13.7684C55.4972 13.8056 55.409 13.917 55.3997 14.047L55.2141 17.7891C53.6454 18.6712 52.2578 19.7948 51.0836 21.0994L47.3894 20.4634C47.2594 20.4402 47.1295 20.5052 47.0691 20.6166L44.9018 24.5584C44.8368 24.6744 44.8554 24.8183 44.9436 24.9158L47.459 27.6969C46.9856 29.3823 46.7814 31.1558 46.8742 32.9572L43.8158 35.1161C43.7091 35.1904 43.6626 35.3297 43.6998 35.4551L44.9528 39.7729C44.99 39.8983 45.1014 39.9865 45.2313 39.9958L48.972 40.1815C49.8537 41.7508 50.9769 43.139 52.281 44.3136L51.6452 48.0093C51.622 48.1393 51.6869 48.2693 51.7983 48.3296L55.7385 50.4978Z" fill="#91CEFA"/>
<path d="M64.9696 36.3045C62.9276 37.131 60.5282 36.351 59.3818 34.3963C58.1241 32.2467 58.8481 29.4703 60.9969 28.2121C62.0365 27.5992 63.2571 27.4321 64.422 27.7385C65.5915 28.045 66.5707 28.7878 67.1787 29.8278C68.4364 31.9774 67.7124 34.7538 65.5636 36.012C65.3734 36.1235 65.1738 36.221 64.9696 36.3045ZM61.9947 28.89C61.8369 28.955 61.6838 29.0292 61.5353 29.1174C59.8877 30.0832 59.3308 32.2096 60.2961 33.8624C61.2614 35.5106 63.387 36.0678 65.0392 35.1021C66.6868 34.1363 67.2437 32.0099 66.2783 30.3571C65.8096 29.5585 65.0578 28.9875 64.1667 28.7553C63.4334 28.565 62.6769 28.616 61.9947 28.89Z" fill="#BDE5FB"/>
<path d="M67.4989 42.3265C67.1461 42.4658 66.7888 42.5912 66.4175 42.6979C66.3015 42.7304 66.1855 42.7629 66.0694 42.7954C65.4939 42.944 64.9045 43.0462 64.3151 43.0972C64.3058 43.0972 64.3012 43.0972 64.2919 43.0972C64.2687 43.0972 64.2455 43.1019 64.2223 43.1019C64.1759 43.1065 64.1341 43.1112 64.0877 43.1112C63.9717 43.1204 63.8649 43.0508 63.8232 42.9487C63.8139 42.9254 63.8046 42.8976 63.8046 42.8697C63.7953 42.7258 63.9021 42.6004 64.0506 42.5865C64.7978 42.5354 65.545 42.4008 66.269 42.1919C69.8704 41.1472 72.4972 38.343 73.4811 34.9816C74.0287 33.1152 74.0705 31.0723 73.4858 29.0712C73.3836 28.7184 73.263 28.3748 73.1284 28.0405C72.2188 25.7888 70.5758 23.9316 68.4224 22.7431C65.9441 21.3781 63.0853 21.0624 60.3703 21.8517C54.7639 23.4813 51.5292 29.3684 53.1582 34.9723C53.2603 35.3159 53.3763 35.6594 53.5109 35.9891C54.091 37.4283 54.9774 38.719 56.1145 39.7776C56.1423 39.8055 56.1655 39.838 56.1794 39.8705C56.2166 39.9633 56.198 40.0701 56.1284 40.149C56.0309 40.2558 55.8639 40.2605 55.7571 40.163C54.5644 39.0533 53.6315 37.6976 53.0236 36.1887C52.8843 35.8405 52.759 35.483 52.6523 35.1209C50.9444 29.2338 54.3462 23.0541 60.2264 21.3456C63.076 20.5192 66.0787 20.8488 68.6777 22.2834C70.9425 23.5277 72.6643 25.4777 73.6203 27.8455C73.7642 28.1984 73.8849 28.5559 73.9963 28.9273C74.8224 31.778 74.4928 34.7819 73.0588 37.3866C71.815 39.6476 69.8658 41.3701 67.4989 42.3265Z" fill="#BDE5FB"/>
<g opacity="0.3">
<path opacity="0.3" d="M40.934 44.9773C40.6231 45.1026 40.2657 44.9773 40.1079 44.6755C39.7598 44.0162 39.435 43.3337 39.1426 42.6466C38.9987 42.3123 39.1565 41.9223 39.4907 41.783C39.4953 41.783 39.4999 41.7783 39.5046 41.7783C39.8387 41.6437 40.2147 41.8016 40.3585 42.1312C40.637 42.7858 40.9479 43.4358 41.2774 44.058C41.4492 44.3783 41.3239 44.7776 41.0036 44.9494C40.9758 44.9587 40.9526 44.968 40.934 44.9773ZM38.827 39.6334C38.8038 39.6426 38.7806 39.6519 38.7527 39.6566C38.4 39.7541 38.038 39.5451 37.9452 39.1923C37.7503 38.4726 37.5832 37.7344 37.4486 37.0009C37.3836 36.6434 37.6203 36.2998 37.9777 36.2348C38.335 36.1698 38.6785 36.4066 38.7435 36.7641C38.8688 37.4605 39.0312 38.1616 39.2168 38.8441C39.3004 39.1737 39.1287 39.5126 38.827 39.6334ZM37.9452 33.9598C37.8756 33.9877 37.8013 34.0016 37.7271 34.0062C37.3651 34.0202 37.0588 33.737 37.0402 33.3748C37.0077 32.6273 37.0124 31.8752 37.0448 31.1277C37.0634 30.7656 37.3697 30.4823 37.7317 30.5009C38.0937 30.5195 38.3768 30.8259 38.3583 31.188C38.3258 31.8984 38.3258 32.6134 38.3536 33.3238C38.3675 33.607 38.1958 33.8577 37.9452 33.9598ZM38.3536 28.2306C38.2422 28.277 38.1169 28.2909 37.987 28.2677C37.6296 28.2027 37.3929 27.8545 37.4579 27.497C37.5971 26.7634 37.7642 26.0252 37.9638 25.3056C38.0612 24.9574 38.4232 24.7484 38.7759 24.8459C39.1287 24.9434 39.3329 25.3056 39.2354 25.6584C39.0451 26.3409 38.8827 27.042 38.7527 27.7384C38.7156 27.9706 38.5578 28.1516 38.3536 28.2306ZM40.0337 22.7381C39.8759 22.8031 39.6949 22.8031 39.5278 22.7335C39.1936 22.5895 39.0405 22.1995 39.1844 21.8652C39.4814 21.1828 39.8109 20.5003 40.1636 19.841C40.3353 19.5206 40.7344 19.3999 41.0547 19.5717C41.3749 19.7435 41.4956 20.1428 41.3239 20.4631C40.9897 21.0899 40.6741 21.7352 40.3957 22.3852C40.3168 22.557 40.1868 22.6777 40.0337 22.7381ZM42.8832 17.7563C42.679 17.8399 42.4377 17.8167 42.2474 17.6774C41.955 17.4638 41.8901 17.0506 42.1035 16.7581C42.5444 16.1546 43.0132 15.5649 43.5051 15.0031C43.7465 14.7292 44.1595 14.7014 44.4333 14.9381C44.7072 15.1749 44.735 15.5928 44.4983 15.8667C44.0342 16.4006 43.584 16.9624 43.1663 17.5335C43.0921 17.6356 42.99 17.7099 42.8832 17.7563ZM64.6867 7.26355C64.6032 7.29605 64.5104 7.31462 64.4129 7.30998C63.7075 7.27748 62.9881 7.27748 62.278 7.30998C61.916 7.32391 61.6051 7.04534 61.5912 6.67855C61.5772 6.31641 61.8557 6.00534 62.2223 5.99142C62.9695 5.95892 63.726 5.95892 64.4686 5.99142C64.8306 6.00534 65.1137 6.31641 65.0998 6.67855C65.0905 6.94784 64.9188 7.17069 64.6867 7.26355ZM46.7631 13.5267C46.5079 13.6289 46.2108 13.5639 46.0206 13.3457C45.7839 13.0717 45.8117 12.6539 46.0855 12.4171C46.6471 11.9296 47.2411 11.456 47.8445 11.0196C48.1415 10.806 48.5499 10.871 48.7634 11.1635C48.9769 11.456 48.9119 11.8692 48.6195 12.0828C48.0487 12.5007 47.4871 12.9464 46.9488 13.4107C46.8931 13.4617 46.8281 13.5035 46.7631 13.5267ZM58.9597 7.66283C58.9179 7.68141 58.8762 7.69069 58.8344 7.69998C58.1382 7.82998 57.4375 7.98783 56.7552 8.17819C56.4025 8.27569 56.0405 8.06676 55.9477 7.71855C55.8502 7.36569 56.0591 7.00355 56.4071 6.9107C57.1265 6.71105 57.8644 6.54391 58.5977 6.40927C58.9551 6.34427 59.2985 6.58105 59.3635 6.93855C59.4192 7.24498 59.2474 7.54676 58.9597 7.66283ZM51.4877 10.2767C51.1814 10.4021 50.8194 10.2767 50.6616 9.97496C50.4899 9.65461 50.6105 9.25532 50.9308 9.08354C51.5898 8.73069 52.272 8.40569 52.9542 8.11319C52.9589 8.11319 52.9635 8.10855 52.9682 8.10855C53.2977 7.9739 53.6782 8.13176 53.8221 8.4614C53.966 8.79568 53.8082 9.18568 53.474 9.32497C52.8196 9.60354 52.1745 9.91461 51.548 10.2489C51.5341 10.2535 51.5109 10.2675 51.4877 10.2767Z" fill="#91CEFA"/>
<path opacity="0.3" d="M69.2719 7.8812C69.1512 7.92763 69.0166 7.94156 68.8774 7.9137C68.5479 7.83941 68.2091 7.76977 67.8703 7.70477C67.513 7.63977 67.2763 7.2962 67.3412 6.9387C67.4062 6.5812 67.7496 6.34442 68.1116 6.40942C68.4643 6.47442 68.8217 6.5487 69.1698 6.62763C69.5225 6.70656 69.7453 7.06406 69.6664 7.41691C69.6199 7.63513 69.4668 7.80227 69.2719 7.8812Z" fill="#91CEFA"/>
</g>
<g opacity="0.3">
<path opacity="0.3" d="M85.5623 19.6461C85.2653 19.7668 84.9219 19.6554 84.7501 19.3768C84.5738 19.0843 84.3928 18.7918 84.2025 18.5086C84.0029 18.2068 84.0865 17.7936 84.3881 17.5939C84.6944 17.3943 85.1029 17.4779 85.3024 17.7796C85.502 18.0814 85.6969 18.3879 85.8779 18.6943C86.0635 19.0054 85.9661 19.4093 85.6551 19.5996C85.6226 19.6182 85.5948 19.6321 85.5623 19.6461Z" fill="#91CEFA"/>
<path opacity="0.3" d="M73.2124 56.7096C72.9293 56.821 72.6462 56.9325 72.3585 57.0393C72.015 57.1646 71.6391 56.9882 71.5138 56.6446C71.3885 56.301 71.5649 55.9203 71.9083 55.7996C72.572 55.5582 73.2217 55.2889 73.8529 55.0011C74.1824 54.8478 74.5769 54.9918 74.7254 55.3214C74.8785 55.6511 74.7347 56.0457 74.4051 56.1943C74.0153 56.3753 73.6162 56.5518 73.2124 56.7096ZM69.0169 58.005C68.9845 58.0189 68.9473 58.0282 68.9102 58.0375C68.1908 58.1953 67.4576 58.3207 66.7336 58.4182C66.3716 58.4646 66.0421 58.2092 65.9956 57.8517C65.9492 57.4896 66.2045 57.16 66.5618 57.1135C67.2534 57.0253 67.9495 56.9 68.6317 56.7514C68.9891 56.6725 69.3372 56.9 69.4161 57.2575C69.4857 57.5732 69.3093 57.8889 69.0169 58.005ZM77.445 54.5275C77.1573 54.6436 76.8185 54.5414 76.6421 54.2721C76.4472 53.9657 76.5354 53.5571 76.8417 53.3621C77.4264 52.9861 78.0066 52.5821 78.5588 52.155C78.8466 51.9321 79.2596 51.9879 79.4824 52.2757C79.7052 52.5636 79.6495 52.9768 79.3617 53.1996C78.777 53.6454 78.169 54.0725 77.5518 54.4718C77.5193 54.495 77.4821 54.5136 77.445 54.5275ZM63.3967 58.59C63.3178 58.6225 63.2342 58.6364 63.1461 58.6364C62.4128 58.6317 61.6702 58.5946 60.937 58.525C60.575 58.4925 60.3058 58.1721 60.3429 57.81C60.3754 57.4478 60.6956 57.1785 61.0576 57.2157C61.7538 57.2807 62.4592 57.3132 63.1554 57.3178C63.5174 57.3225 63.8144 57.6196 63.8097 57.9818C63.8097 58.2603 63.638 58.4925 63.3967 58.59ZM81.8308 50.9757C81.5941 51.0732 81.3156 51.0222 81.1207 50.8318C80.8608 50.5764 80.8608 50.1586 81.116 49.8986C81.6034 49.4018 82.0814 48.8818 82.5269 48.3432C82.759 48.0647 83.1766 48.0275 83.4551 48.2597C83.7336 48.4918 83.7707 48.9097 83.5386 49.1882C83.0699 49.7547 82.5687 50.3025 82.0535 50.8271C81.9886 50.8921 81.9143 50.9432 81.8308 50.9757ZM85.3347 46.5465C85.1444 46.6207 84.9263 46.6115 84.736 46.4954C84.4297 46.3004 84.3323 45.8965 84.5272 45.5854C84.8985 44.9958 85.2465 44.3783 85.5668 43.7608C85.7338 43.4358 86.1283 43.3104 86.4532 43.4776C86.7781 43.6447 86.9034 44.044 86.7363 44.3643C86.4021 45.0143 86.0309 45.6643 85.641 46.2865C85.5714 46.4072 85.46 46.4954 85.3347 46.5465ZM87.7898 41.4533C87.6459 41.509 87.4835 41.5183 87.3257 41.4626C86.9823 41.3419 86.8013 40.9658 86.9219 40.6222C87.154 39.9629 87.3628 39.2897 87.5392 38.6119C87.632 38.259 87.9894 38.0501 88.3421 38.1429C88.6948 38.2358 88.9036 38.5933 88.8108 38.9462C88.6252 39.6565 88.4071 40.3669 88.1611 41.0586C88.0961 41.249 87.9569 41.3883 87.7898 41.4533ZM89.0754 35.9515C88.9779 35.9933 88.8665 36.0072 88.7505 35.9933C88.3885 35.9515 88.1332 35.6219 88.175 35.2597C88.2586 34.568 88.3142 33.8623 88.3374 33.1658C88.3514 32.8037 88.6577 32.5158 89.0197 32.5298C89.3817 32.5437 89.6694 32.8455 89.6555 33.2123C89.6323 33.9458 89.572 34.6887 89.4838 35.4176C89.4513 35.6683 89.2889 35.8633 89.0754 35.9515ZM89.1218 30.2966C89.0661 30.3198 89.0058 30.3337 88.9408 30.343C88.5788 30.3801 88.2539 30.1155 88.2168 29.7534C88.1472 29.0616 88.0451 28.3605 87.9151 27.6734C87.8455 27.3159 88.0822 26.9723 88.4395 26.9027C88.7969 26.833 89.1403 27.0698 89.21 27.4273C89.3445 28.1516 89.4559 28.8851 89.5302 29.6141C89.5627 29.9205 89.3863 30.1898 89.1218 30.2966ZM87.9244 24.7762C87.9105 24.7809 87.9012 24.7855 87.8873 24.7902C87.5438 24.9062 87.1679 24.7205 87.0519 24.3723C86.8895 23.8848 86.7085 23.3973 86.5182 22.9191C86.4486 22.7473 86.3789 22.5755 86.3047 22.4084C86.1608 22.0741 86.314 21.6841 86.6528 21.5448C86.9869 21.3916 87.3768 21.5541 87.516 21.8884C87.5949 22.0648 87.6691 22.2459 87.7388 22.427C87.9383 22.9284 88.1286 23.4391 88.3003 23.9545C88.4163 24.2887 88.2446 24.6462 87.9244 24.7762Z" fill="#91CEFA"/>
<path opacity="0.3" d="M57.7719 57.9214C57.6512 57.9725 57.512 57.9818 57.3774 57.9539C57.0293 57.875 56.6766 57.7821 56.3285 57.6846C55.9758 57.5871 55.7716 57.225 55.8691 56.8721C55.9665 56.5193 56.3285 56.315 56.6812 56.4125C57.0108 56.5054 57.3449 56.5889 57.6744 56.6679C58.0271 56.7514 58.2499 57.1043 58.1664 57.4571C58.12 57.6753 57.9668 57.8425 57.7719 57.9214Z" fill="#91CEFA"/>
</g>
<g opacity="0.3">
<path opacity="0.3" d="M26.5749 69.5008C26.4125 69.5658 26.2176 69.5193 26.1015 69.3754C25.8881 69.1061 25.6792 68.8229 25.4796 68.5397C25.3497 68.354 25.3961 68.1032 25.5817 67.9732C25.7674 67.8432 26.018 67.8897 26.1479 68.0754C26.3382 68.3447 26.5378 68.614 26.742 68.874C26.8812 69.0504 26.8534 69.3058 26.677 69.4451C26.6445 69.4683 26.612 69.4868 26.5749 69.5008Z" fill="#91CEFA"/>
<path opacity="0.3" d="M24.8669 66.8776C24.6766 66.9565 24.4538 66.8776 24.3564 66.6919C24.0779 66.1672 23.8273 65.6194 23.6045 65.0669C23.5581 64.9508 23.5117 64.8347 23.4653 64.714C23.3864 64.5051 23.5071 64.273 23.702 64.1894C23.9108 64.1105 24.1475 64.2172 24.2264 64.4262C24.2682 64.5376 24.3146 64.649 24.3564 64.7605C24.5699 65.2851 24.8112 65.8097 25.0757 66.3112C25.1825 66.5108 25.1036 66.7569 24.904 66.859C24.8947 66.8637 24.8808 66.8729 24.8669 66.8776ZM23.3678 62.9219C23.3493 62.9312 23.3307 62.9358 23.3121 62.9405C23.094 62.9962 22.8712 62.8615 22.8202 62.6433C22.6485 61.9422 22.5185 61.2273 22.435 60.5123C22.4071 60.2894 22.5696 60.0851 22.7924 60.0619C23.0151 60.034 23.2193 60.1965 23.2425 60.4194C23.3214 61.1019 23.4467 61.7844 23.6092 62.453C23.6602 62.648 23.5535 62.8476 23.3678 62.9219ZM22.8759 58.7248C22.8295 58.7433 22.7738 58.7526 22.7227 58.7526C22.5 58.7526 22.319 58.5669 22.319 58.3441C22.3236 57.6244 22.3747 56.8955 22.4675 56.1805C22.4953 55.9576 22.6995 55.7998 22.9223 55.8323C23.1451 55.8601 23.3029 56.0644 23.2704 56.2873C23.1822 56.9698 23.1311 57.6616 23.1265 58.3487C23.1311 58.5205 23.0244 58.6644 22.8759 58.7248ZM23.4282 54.5323C23.3493 54.5648 23.2611 54.5694 23.1729 54.5509C22.9548 54.4951 22.8248 54.2723 22.8805 54.0541C23.0615 53.3576 23.2889 52.6612 23.5535 51.9927C23.637 51.7837 23.8737 51.6816 24.0826 51.7652C24.2914 51.8487 24.3935 52.0855 24.31 52.2944C24.0547 52.9305 23.8412 53.5944 23.6649 54.2584C23.637 54.3884 23.5442 54.4859 23.4282 54.5323ZM24.9875 50.6044C24.8762 50.6462 24.7509 50.6462 24.6395 50.5859C24.4445 50.4791 24.3703 50.233 24.477 50.0334C24.8251 49.402 25.2103 48.7845 25.6326 48.1995C25.7626 48.0184 26.0178 47.9766 26.1988 48.1066C26.3798 48.2366 26.4216 48.492 26.2917 48.673C25.8925 49.2302 25.5213 49.8198 25.1917 50.4234C25.1453 50.5069 25.0711 50.5719 24.9875 50.6044ZM27.4519 47.1734C27.3127 47.2291 27.141 47.2059 27.0249 47.0945C26.8579 46.9413 26.8486 46.6859 27.0017 46.5188C27.489 45.9895 28.0181 45.488 28.5658 45.0238C28.7375 44.8798 28.9927 44.903 29.1412 45.0748C29.2851 45.2466 29.2619 45.502 29.0902 45.6505C28.5658 46.0916 28.0645 46.5745 27.5958 47.0759C27.554 47.1177 27.503 47.1502 27.4519 47.1734ZM30.6774 44.448C30.5011 44.5177 30.2922 44.4573 30.1855 44.2902C30.0648 44.0998 30.1159 43.8491 30.3061 43.7284C30.9095 43.3384 31.5406 42.9763 32.1904 42.6606C32.3946 42.5631 32.6359 42.6466 32.7334 42.8509C32.8308 43.0552 32.7473 43.2966 32.5477 43.3941C31.9258 43.6959 31.3225 44.0395 30.747 44.4109C30.7285 44.4295 30.7006 44.4388 30.6774 44.448ZM36.5204 42.0384C36.4972 42.0477 36.474 42.0523 36.4508 42.057C35.8707 42.1777 35.2859 42.3356 34.7151 42.5213C34.6269 42.5491 34.5434 42.577 34.4598 42.6048C34.2463 42.6791 34.0143 42.5631 33.9447 42.3541C33.8704 42.1406 33.9818 41.9038 34.1953 41.8388C34.2835 41.8063 34.3763 41.7784 34.4645 41.7506C35.0632 41.5556 35.6758 41.3931 36.2837 41.2631C36.5019 41.2166 36.72 41.3559 36.7664 41.5788C36.8082 41.7691 36.6968 41.9641 36.5204 42.0384Z" fill="#91CEFA"/>
</g>
<g opacity="0.3">
<path opacity="0.3" d="M46.6937 74.6869C46.4895 74.7705 46.2528 74.673 46.1646 74.4641C46.0764 74.2551 46.1739 74.0184 46.3828 73.9302C47.0093 73.6702 47.6219 73.3684 48.2067 73.0341C48.4016 72.9273 48.6522 72.9923 48.7636 73.1873C48.875 73.3823 48.8054 73.633 48.6104 73.7444C47.9978 74.0927 47.3527 74.4084 46.6983 74.6823C46.6983 74.6869 46.6983 74.6869 46.6937 74.6869ZM44.7306 75.3741C44.7166 75.3787 44.7027 75.3834 44.6888 75.388C44.0066 75.583 43.3058 75.7362 42.6096 75.8476C42.3868 75.8801 42.178 75.7316 42.1455 75.5087C42.1084 75.2859 42.2615 75.0769 42.4843 75.0444C43.1526 74.9376 43.8209 74.7937 44.4707 74.608C44.6888 74.5476 44.9116 74.673 44.9719 74.8866C45.0276 75.0862 44.9208 75.2951 44.7306 75.3741ZM50.3044 72.6302C50.1373 72.6998 49.9378 72.6487 49.8264 72.4955C49.6918 72.3144 49.7289 72.0591 49.9099 71.9244C50.4529 71.5205 50.9774 71.0795 51.4647 70.6105C51.6271 70.4573 51.887 70.462 52.0402 70.6245C52.1933 70.787 52.1887 71.0469 52.0262 71.2002C51.5157 71.6877 50.9681 72.1519 50.3972 72.5744C50.3694 72.5977 50.3369 72.6162 50.3044 72.6302ZM40.6233 76.0194C40.5815 76.038 40.5351 76.0473 40.484 76.0473C39.7739 76.0705 39.0592 76.0519 38.3538 75.9869C38.131 75.9684 37.964 75.7687 37.9825 75.5459C38.0011 75.323 38.2006 75.1559 38.4234 75.1744C39.0964 75.2348 39.7786 75.2534 40.4562 75.2301C40.6789 75.2209 40.8692 75.3973 40.8785 75.6248C40.8832 75.8012 40.7764 75.9591 40.6233 76.0194ZM53.3118 69.7609C53.1772 69.8166 53.0194 69.798 52.8987 69.6959C52.727 69.552 52.6992 69.2966 52.843 69.1248C53.27 68.6048 53.6738 68.0477 54.0358 67.4766C54.1565 67.2863 54.4071 67.2305 54.5974 67.3513C54.7876 67.472 54.8433 67.7227 54.7227 67.913C54.3421 68.512 53.9198 69.0923 53.4742 69.6402C53.4278 69.6959 53.3721 69.7377 53.3118 69.7609ZM55.5441 66.2509C55.442 66.2927 55.3213 66.2927 55.2146 66.2416C55.0104 66.1441 54.9269 65.9027 55.0243 65.6984C55.3167 65.0856 55.572 64.4541 55.7901 63.8134C55.8597 63.5998 56.0918 63.4838 56.3052 63.5581C56.5187 63.6277 56.6348 63.8598 56.5605 64.0734C56.3331 64.742 56.0639 65.4105 55.7576 66.0513C55.7112 66.1488 55.6323 66.2184 55.5441 66.2509ZM56.8714 62.3138C56.8018 62.3416 56.7183 62.3509 56.6394 62.3324C56.4213 62.2859 56.2774 62.0724 56.3238 61.8495C56.463 61.1856 56.5605 60.5077 56.6162 59.8345C56.6348 59.6117 56.8297 59.4445 57.0571 59.4631C57.2799 59.4817 57.4469 59.6766 57.4284 59.9041C57.368 60.6099 57.2659 61.3202 57.1221 62.0166C57.0896 62.1559 56.9921 62.2627 56.8714 62.3138Z" fill="#91CEFA"/>
<path opacity="0.3" d="M36.4603 75.6479C36.386 75.6757 36.3072 75.685 36.2236 75.6664C35.8848 75.5921 35.5414 75.5086 35.2119 75.4204C34.9937 75.36 34.8684 75.1372 34.9288 74.9189C34.9891 74.7007 35.2119 74.5754 35.43 74.6357C35.7456 74.724 36.0705 74.8029 36.3953 74.8725C36.6135 74.9189 36.7527 75.1372 36.7063 75.3554C36.6784 75.4946 36.581 75.5968 36.4603 75.6479Z" fill="#91CEFA"/>
</g>
<path d="M34.808 70.6428C34.8868 70.6845 34.9797 70.6753 35.0446 70.6149L36.9057 68.9295C38.0335 69.2453 39.2215 69.3845 40.4236 69.3195L41.8669 71.367C41.918 71.4367 42.0061 71.4692 42.0943 71.446L44.9857 70.6056C45.0692 70.5824 45.1295 70.5035 45.1342 70.4199L45.2595 67.9174C46.3084 67.3278 47.2366 66.5756 48.0209 65.7028L50.4945 66.1299C50.5827 66.1438 50.6663 66.1021 50.708 66.0278L52.156 63.3906C52.1978 63.3117 52.1885 63.2189 52.1282 63.1539L50.4435 61.2921C50.7591 60.1639 50.8983 58.9753 50.8333 57.7728L52.88 56.3289C52.9496 56.2778 52.9821 56.1896 52.9589 56.1014L52.1189 53.2089C52.0957 53.1253 52.0168 53.065 51.9333 53.0603L49.4318 52.935C48.8423 51.8857 48.0905 50.9571 47.218 50.1725L47.645 47.6979C47.6589 47.6097 47.6171 47.5261 47.5429 47.4843L44.9068 46.0357C44.8279 45.994 44.7351 46.0032 44.6701 46.0636L42.809 47.7489C41.6813 47.4332 40.4932 47.2939 39.2912 47.3589L37.8478 45.3115C37.7968 45.2418 37.7086 45.2093 37.6204 45.2325L34.7291 46.0729C34.6455 46.0961 34.5852 46.175 34.5805 46.2586L34.4552 48.7611C33.4064 49.3507 32.4782 50.1029 31.6938 50.9757L29.2202 50.5486C29.132 50.5346 29.0485 50.5764 29.0067 50.6507L27.5587 53.2878C27.5169 53.3668 27.5262 53.4596 27.5866 53.5246L29.2712 55.3864C28.9556 56.5146 28.8164 57.7032 28.8814 58.9057L26.8347 60.3496C26.7651 60.4007 26.7326 60.4889 26.7558 60.5771L27.5958 63.4696C27.619 63.5531 27.6979 63.6135 27.7815 63.6181L30.283 63.7435C30.8724 64.7928 31.6242 65.7213 32.4967 66.506L32.0698 68.9806C32.0558 69.0688 32.0976 69.1524 32.1719 69.1942L34.808 70.6428Z" fill="#91CEFA"/>
<path d="M41.0038 61.1994C40.3958 61.4454 39.7275 61.4872 39.0778 61.3201C38.2842 61.1111 37.6158 60.6051 37.1982 59.8947C36.3396 58.4276 36.8362 56.538 38.2981 55.679C39.7646 54.8201 41.6535 55.3169 42.5121 56.7794C42.9298 57.4897 43.0412 58.3208 42.8323 59.1147C42.6235 59.9086 42.1176 60.5772 41.4075 60.9951C41.2822 61.074 41.143 61.1436 41.0038 61.1994ZM39.0128 56.2362C38.9107 56.278 38.8132 56.3244 38.7158 56.3847C37.6391 57.0162 37.2771 58.4044 37.9082 59.4862C38.2145 60.0061 38.7065 60.3822 39.2912 60.5308C39.876 60.684 40.484 60.6004 41.0084 60.294C41.5282 59.9876 41.9041 59.4954 42.0573 58.9104C42.2104 58.3254 42.1269 57.7126 41.8206 57.1926C41.2358 56.213 40.0338 55.823 39.0128 56.2362Z" fill="#BDE5FB"/>
<path d="M42.7581 65.3918C42.5214 65.4893 42.2754 65.5728 42.0202 65.6471C41.5189 65.7911 41.0038 65.8886 40.484 65.9303C40.4608 65.9303 40.4376 65.935 40.4144 65.935C40.2334 65.9489 40.0709 65.8421 40.0106 65.6796C39.9967 65.6425 39.9874 65.6007 39.9828 65.5543C39.9688 65.3314 40.1359 65.1364 40.3587 65.1178C40.8413 65.0853 41.3286 64.9971 41.7928 64.8625C41.8206 64.8532 41.8438 64.8486 41.8716 64.8393C42.9762 64.505 43.9601 63.9107 44.7491 63.1121C45.1807 62.6804 45.552 62.1836 45.8583 61.6357C45.8629 61.6311 45.8629 61.6264 45.8676 61.6218C45.8768 61.6079 45.8815 61.5939 45.8908 61.58C46.7726 59.9736 46.9768 58.1257 46.4662 56.3661C46.4013 56.1386 46.3224 55.9158 46.2342 55.6975C45.6448 54.2397 44.582 53.0372 43.1851 52.2665C41.5793 51.3844 39.7321 51.1801 37.9732 51.6908C36.2189 52.2015 34.7616 53.3669 33.8798 54.9686C32.998 56.575 32.7938 58.4229 33.3043 60.1825C33.3693 60.4054 33.4436 60.6282 33.5317 60.8418C33.9077 61.7704 34.4832 62.6107 35.2164 63.2932C35.2628 63.335 35.2953 63.3861 35.3185 63.4371C35.3742 63.5764 35.351 63.7482 35.2396 63.8643C35.0865 64.0268 34.8312 64.0407 34.6642 63.8875C33.8427 63.1214 33.1976 62.1836 32.7799 61.1436C32.6824 60.9022 32.5989 60.6561 32.5246 60.4054C31.9538 58.4368 32.1812 56.3661 33.1698 54.5693C34.1583 52.7726 35.7826 51.4726 37.7504 50.9015C39.7182 50.3304 41.7881 50.5579 43.5842 51.5469C45.1482 52.4058 46.3363 53.7522 46.9953 55.3818C47.0928 55.6233 47.181 55.874 47.2552 56.1293C48.3505 59.9504 46.3595 63.9386 42.7581 65.3918Z" fill="#BDE5FB"/>
<path d="M24.5138 15.6929H20.0352V117.399H24.5138V15.6929Z" fill="#7DB4F4"/>
<path d="M41.3841 34.7237C41.3841 39.7287 37.3278 43.7912 32.3202 43.7912H12.1132C7.11023 43.7912 3.04935 39.7333 3.04935 34.7237V14.5135C3.04935 9.50852 7.10559 5.44604 12.1132 5.44604H32.3202C37.3232 5.44604 41.3841 9.50388 41.3841 14.5135V34.7237Z" fill="#7DB4F4"/>
<path d="M39.3466 33.3866C39.3466 37.8344 35.7405 41.4419 31.2944 41.4419H13.2966C8.85054 41.4419 5.24448 37.8344 5.24448 33.3866V15.3817C5.24448 10.9339 8.85054 7.32642 13.2966 7.32642H31.2991C35.7452 7.32642 39.3512 10.9339 39.3512 15.3817V33.3866H39.3466Z" fill="white"/>
<path d="M17.6171 33.7859C17.6799 33.8211 17.7579 33.811 17.8107 33.7632L19.3169 32.3998C20.2297 32.6564 21.1903 32.767 22.166 32.7167L23.3353 34.3745C23.3755 34.4324 23.4509 34.4575 23.5188 34.4374L25.8574 33.7582C25.9253 33.7381 25.9731 33.6777 25.9781 33.6072L26.0787 31.5797C26.9286 31.1017 27.6805 30.4929 28.3167 29.7861L30.3183 30.1307C30.3887 30.1433 30.4591 30.1081 30.4918 30.0477L31.6661 27.912C31.7013 27.8491 31.6913 27.7711 31.6435 27.7183L30.2806 26.2114C30.5371 25.2983 30.6477 24.3373 30.5974 23.3613L32.2545 22.1915C32.3124 22.1513 32.3375 22.0758 32.3174 22.0079L31.6385 19.6684C31.6183 19.6005 31.558 19.5527 31.4876 19.5476L29.4608 19.447C28.983 18.5967 28.3745 17.8446 27.6679 17.2081L28.0124 15.2057C28.025 15.1353 27.9898 15.0648 27.9294 15.0321L25.7945 13.8574C25.7317 13.8221 25.6537 13.8322 25.6009 13.88L24.0947 15.2435C23.1819 14.9869 22.2213 14.8762 21.2456 14.9265L20.0763 13.2687C20.0361 13.2109 19.9607 13.1857 19.8928 13.2058L17.5542 13.885C17.4863 13.9052 17.4385 13.9655 17.4335 14.036L17.3329 16.0635C16.483 16.5415 15.7311 17.1503 15.0949 17.8571L13.0933 17.5125C13.0229 17.4999 12.9525 17.5352 12.9198 17.5955L11.7455 19.7313C11.7103 19.7942 11.7203 19.8721 11.7681 19.925L13.131 21.4318C12.8745 22.345 12.7639 23.3059 12.8142 24.282L11.1571 25.4517C11.0992 25.492 11.0741 25.5674 11.0942 25.6353L11.7731 27.9748C11.7932 28.0428 11.8536 28.0906 11.924 28.0956L13.9508 28.1962C14.4285 29.0465 15.0371 29.7986 15.7437 30.4351L15.3992 32.4375C15.3866 32.5079 15.4218 32.5784 15.4822 32.6111L17.6171 33.7859Z" fill="#F2F2F2"/>
<path d="M22.6186 26.0956C21.5122 26.5434 20.2121 26.1208 19.591 25.0617C18.9096 23.897 19.3018 22.3927 20.4661 21.711C21.0294 21.3789 21.6907 21.2884 22.3219 21.4544C22.9555 21.6204 23.4861 22.0229 23.8155 22.5864C24.497 23.7511 24.1047 25.2554 22.9404 25.9372C22.8373 25.9975 22.7292 26.0504 22.6186 26.0956ZM21.0067 22.0782C20.9212 22.1135 20.8382 22.1537 20.7578 22.2015C19.8651 22.7248 19.5633 23.8769 20.0864 24.7724C20.6094 25.6655 21.7611 25.9673 22.6563 25.4441C23.549 24.9209 23.8507 23.7687 23.3277 22.8732C23.0737 22.4405 22.6664 22.1311 22.1835 22.0053C21.7862 21.9022 21.3764 21.9298 21.0067 22.0782Z" fill="#C2CACC"/>
<path d="M23.9891 29.3585C23.798 29.434 23.6044 29.5019 23.4032 29.5598C23.3403 29.5774 23.2775 29.595 23.2146 29.6126C22.9028 29.6931 22.5834 29.7485 22.2641 29.7761C22.2591 29.7761 22.2565 29.7761 22.2515 29.7761C22.2389 29.7761 22.2264 29.7786 22.2138 29.7786C22.1887 29.7812 22.166 29.7837 22.1409 29.7837C22.078 29.7887 22.0202 29.751 21.9975 29.6956C21.9925 29.6831 21.9875 29.668 21.9875 29.6529C21.9825 29.5749 22.0403 29.507 22.1208 29.4994C22.5256 29.4717 22.9305 29.3988 23.3227 29.2856C25.2741 28.7196 26.6973 27.2002 27.2304 25.3789C27.5271 24.3676 27.5498 23.2608 27.2329 22.1766C27.1776 21.9854 27.1122 21.7992 27.0393 21.6181C26.5464 20.398 25.6563 19.3918 24.4895 18.7478C23.1467 18.0082 21.5977 17.8372 20.1267 18.2648C17.0891 19.1478 15.3364 22.3375 16.219 25.3739C16.2743 25.56 16.3372 25.7462 16.4101 25.9248C16.7244 26.7046 17.2047 27.4039 17.8208 27.9775C17.8359 27.9926 17.8485 28.0102 17.856 28.0278C17.8761 28.0781 17.8661 28.136 17.8283 28.1787C17.7755 28.2366 17.685 28.2391 17.6272 28.1863C16.9809 27.5851 16.4755 26.8505 16.1461 26.0329C16.0706 25.8443 16.0027 25.6506 15.9449 25.4544C15.0195 22.2646 16.8627 18.9164 20.0487 17.9906C21.5927 17.5428 23.2196 17.7215 24.6278 18.4988C25.8549 19.1729 26.7879 20.2295 27.3059 21.5124C27.3838 21.7036 27.4492 21.8973 27.5095 22.0986C27.9571 23.6431 27.7786 25.2707 27.0016 26.682C26.3277 27.9071 25.2716 28.8403 23.9891 29.3585Z" fill="#C2CACC"/>
<path d="M72.2975 78.2365C86.9724 81.9089 95.5815 91.7192 99.828 92.7128C104.075 93.7064 121.079 94.6117 123.85 97.1885C126.621 99.7653 123.975 101.599 127.539 104.91C131.484 116.043 119.269 119.377 119.269 119.377L8.25165 118.476C8.25165 118.476 0.76106 119.149 0.593984 113.796C0.426908 108.443 0.310883 106.038 0.705368 101.218C1.09985 96.3992 3.04444 95.856 4.11651 93.3582C5.18858 90.8603 15.6123 90.5864 17.6404 87.8053C19.6685 85.0243 22.0818 80.5904 30.6909 79.0814C42.5765 76.9968 63.7859 76.11 72.2975 78.2365Z" fill="url(#paint0_linear)"/>
<path d="M0 113.48C0.190281 119.632 10.6186 118.541 10.665 118.536C10.665 118.536 18.9539 112.189 7.55092 112.431C4.12585 112.343 0.649741 110.527 0.649741 110.527L0 113.48Z" fill="url(#paint1_linear)"/>
<path d="M128.212 107.663C128.212 107.663 128.319 109.232 125.381 110.834C121.738 112.821 106.799 110.527 106.799 110.527L107.648 118.778L119.566 119.386C119.292 119.465 135.225 118.545 128.212 107.663Z" fill="url(#paint2_linear)"/>
<path d="M19.5201 95.8653C19.5201 95.8653 19.1627 93.0703 22.0959 89.6486C25.029 86.2222 26.7415 83.9658 28.997 83.3808C31.2526 82.8004 47.7653 80.5115 48.8513 82.2711C49.9373 84.0308 51.3342 94.8207 51.3342 94.8207L19.5201 95.8653Z" fill="url(#paint3_linear)"/>
<path opacity="0.42" d="M29.2988 83.0836C31.1506 82.8096 45.1942 81.1754 48.8189 81.6396L49.7563 85.2518L19.5063 95.8606C19.5063 95.8606 19.3624 93.5624 20.8754 91.2967C23.414 87.4896 27.3635 83.3296 29.2988 83.0836Z" fill="url(#paint4_linear)"/>
<path d="M53.7892 82.271C54.2487 84.3557 55.9334 94.5281 55.9334 94.5281L91.6366 94.361C91.6366 94.361 80.3822 84.0121 71.7313 82.3778C63.0759 80.7389 53.4968 81.166 53.7892 82.271Z" fill="url(#paint5_linear)"/>
<path opacity="0.42" d="M70.5109 81.6072C63.4612 80.6276 60.8808 80.8133 53.4923 81.4633L54.2024 84.4208C54.2024 84.4208 65.1969 82.2619 75.4396 83.5108C75.4396 83.5062 72.8082 81.9276 70.5109 81.6072Z" fill="url(#paint6_linear)"/>
<path d="M123.024 96.6592C123.024 96.6592 117.241 94.8021 115.83 99.3799C114.484 103.74 127.54 104.914 127.54 104.914C127.54 104.914 126.574 98.4421 123.024 96.6592Z" fill="url(#paint7_linear)"/>
<path opacity="0.56" d="M17.543 90.9252C17.5755 90.9252 17.608 90.9206 17.6405 90.9113C19.0003 90.5027 20.142 89.0681 21.4693 87.4106C23.4046 84.9917 25.5952 82.2478 29.1734 81.5653C36.0328 80.256 46.4287 79.346 46.5308 79.3414C46.7164 79.3274 46.851 79.1603 46.8371 78.9792C46.8232 78.7935 46.6654 78.6542 46.4751 78.6728C46.3683 78.6821 35.94 79.5921 29.0481 80.906C25.2286 81.6349 22.8524 84.6063 20.9449 86.9927C19.6918 88.562 18.6058 89.9177 17.4502 90.2706C17.2739 90.3263 17.1718 90.512 17.2275 90.6884C17.2692 90.8277 17.3992 90.9252 17.543 90.9252Z" fill="white"/>
<path opacity="0.56" d="M6.915 94.7325C7.04031 94.7325 7.15633 94.6628 7.21667 94.5468C7.77823 93.4093 10.2751 92.8939 12.6884 92.3971C13.5516 92.2207 14.4427 92.035 15.2642 91.8214C15.4452 91.775 15.5519 91.5893 15.5055 91.4128C15.4591 91.2318 15.2735 91.1296 15.0971 91.1714C14.2942 91.3803 13.4078 91.5661 12.5538 91.7425C9.86668 92.2996 7.32805 92.8243 6.61798 94.2496C6.53444 94.4168 6.60405 94.6164 6.77113 94.7C6.8129 94.7232 6.86395 94.7325 6.915 94.7325Z" fill="white"/>
<path opacity="0.56" d="M55.9705 117.821C55.9797 117.821 55.9937 117.821 56.0029 117.821C56.1979 117.821 56.3557 117.645 56.351 117.45C56.351 117.31 56.2628 117.18 56.1422 117.125C55.446 116.006 54.5457 103.907 54.1326 96.4502C54.1233 96.2552 53.9563 96.1019 53.7614 96.1159C53.5664 96.1252 53.4179 96.2923 53.4272 96.4873C53.4318 96.5384 53.7196 101.808 54.1373 106.999C54.9912 117.566 55.511 117.821 55.9705 117.821Z" fill="white"/>
<path d="M43.8993 118.448C43.9782 117.979 44.0246 117.301 44.0246 116.688C44.0246 109.362 38.0888 103.447 30.7653 103.447C23.4418 103.447 17.5059 109.353 17.5059 116.679C17.5059 117.292 17.5523 117.979 17.6312 118.448H43.8993Z" fill="#4A4A4A"/>
<path d="M30.663 127.186C36.6326 127.186 41.4719 122.345 41.4719 116.373C41.4719 110.401 36.6326 105.56 30.663 105.56C24.6934 105.56 19.8541 110.401 19.8541 116.373C19.8541 122.345 24.6934 127.186 30.663 127.186Z" fill="url(#paint8_linear)"/>
<path opacity="0.6" d="M30.6628 125.152C35.5097 125.152 39.4389 121.221 39.4389 116.373C39.4389 111.524 35.5097 107.593 30.6628 107.593C25.8159 107.593 21.8867 111.524 21.8867 116.373C21.8867 121.221 25.8159 125.152 30.6628 125.152Z" fill="url(#paint9_linear)"/>
<path d="M38.0373 119.553C38.0187 119.553 37.9955 119.548 37.977 119.539C37.8981 119.507 37.8609 119.414 37.8934 119.335C38.2926 118.397 38.4921 117.399 38.4921 116.368C38.4921 112.166 35.0763 108.749 30.8762 108.749C29.5721 108.749 28.2865 109.083 27.1588 109.715C27.0845 109.757 26.9871 109.729 26.9453 109.654C26.9035 109.58 26.9314 109.483 27.0056 109.441C28.1798 108.782 29.521 108.433 30.8762 108.433C35.2481 108.433 38.8031 111.99 38.8031 116.363C38.8031 117.436 38.5942 118.471 38.1812 119.451C38.1533 119.516 38.0976 119.553 38.0373 119.553Z" fill="#7DB4F4"/>
<path d="M108.976 118.917C109.054 118.448 109.101 117.803 109.101 117.19C109.101 109.863 103.165 103.962 95.8415 103.962C88.518 103.962 82.5822 109.845 82.5822 117.171C82.5822 117.784 82.6286 118.448 82.7075 118.917H108.976Z" fill="#424242"/>
<path d="M95.7395 127.715C101.709 127.715 106.548 122.874 106.548 116.902C106.548 110.93 101.709 106.089 95.7395 106.089C89.7699 106.089 84.9305 110.93 84.9305 116.902C84.9305 122.874 89.7699 127.715 95.7395 127.715Z" fill="url(#paint10_linear)"/>
<path opacity="0.6" d="M95.7391 125.681C100.586 125.681 104.515 121.751 104.515 116.902C104.515 112.053 100.586 108.122 95.7391 108.122C90.8922 108.122 86.963 112.053 86.963 116.902C86.963 121.751 90.8922 125.681 95.7391 125.681Z" fill="url(#paint11_linear)"/>
<path d="M103.114 120.082C103.095 120.082 103.072 120.078 103.054 120.068C102.975 120.036 102.938 119.943 102.97 119.864C103.369 118.926 103.569 117.928 103.569 116.897C103.569 112.695 100.153 109.278 95.9528 109.278C94.6487 109.278 93.3631 109.613 92.2354 110.244C92.1611 110.286 92.0637 110.258 92.0219 110.184C91.9801 110.109 92.008 110.012 92.0822 109.97C93.2564 109.311 94.5976 108.963 95.9528 108.963C100.325 108.963 103.88 112.519 103.88 116.893C103.88 117.965 103.671 119 103.258 119.98C103.23 120.045 103.174 120.082 103.114 120.082Z" fill="#7DB4F4"/>
<path d="M85.7889 93.6041L83.0786 90.7627C81.9508 89.5788 80.526 88.771 78.9852 88.432L73.6248 87.2667C72.1536 86.9464 70.7474 88.0606 70.585 89.6717L70.5479 90.0477C70.3854 91.6867 71.5828 93.112 73.1143 93.0934L80.0201 93.0099C80.9855 92.9959 81.858 93.6134 82.2385 94.5652L82.3638 94.8855C82.5309 95.308 82.9208 95.582 83.3477 95.582H85.0463C86.0024 95.5866 86.4758 94.3284 85.7889 93.6041Z" fill="url(#paint12_linear)"/>
<path d="M57.8362 96.8496H66.7933C67.4941 96.8496 67.9861 97.5971 67.7401 98.3075C67.3317 99.5053 66.3525 101.028 64.0366 101.209C61.9481 101.372 59.3213 100.095 57.3396 98.8832C56.4393 98.3307 56.8059 96.8496 57.8362 96.8496Z" fill="#E1473D"/>
<path d="M0.668212 101.223L2.23223 101.502C2.75202 101.595 3.13259 102.05 3.13259 102.579V106.275C3.13259 106.878 2.64528 107.366 2.04195 107.366H0.487213L0.668212 101.223Z" fill="url(#paint13_linear)"/>
<path d="M74.8376 70.9728L75.8917 73.0809C78.8063 73.2759 83.125 72.3447 85.0092 71.4904C84.4012 68.7837 83.6123 67.103 82.9393 66.0862C79.6581 69.4104 74.8376 70.9728 74.8376 70.9728Z" fill="url(#paint14_linear)"/>
<path d="M91.4464 65.2088L87.896 56.9724C86.8935 61.1277 84.9582 64.0574 82.9394 66.0956C83.6123 67.1124 84.4013 68.7884 85.0093 71.4998C89.706 69.3641 91.4464 65.2088 91.4464 65.2088Z" fill="#333333"/>
<path d="M95.1502 129.401C92.7415 129.512 90.4117 129.442 88.8523 129.363C90.2678 128.356 93.5351 126.16 96.2686 125.282L98.1436 125.171C98.1436 125.171 98.7794 126.137 99.0068 128.351C98.6959 128.737 97.7863 129.28 95.1502 129.401Z" fill="url(#paint15_linear)"/>
<path d="M88.8336 129.377C88.8382 129.373 88.8475 129.368 88.8521 129.363C90.4068 129.442 92.7413 129.512 95.1499 129.401C97.786 129.28 98.6956 128.737 99.0066 128.351C99.0159 128.453 99.0298 128.556 99.0344 128.662C99.0715 129.15 98.7142 129.572 98.2269 129.61C96.2545 129.758 91.3629 130.097 89.0053 129.972C88.6943 129.958 88.5783 129.558 88.8336 129.377Z" fill="url(#paint16_linear)"/>
<path d="M112.011 128.755C112.187 127.622 112.47 125.988 112.688 125.57C113.032 124.916 114.206 125.57 114.206 125.57C114.206 125.57 115.032 125.956 115.408 126.596C115.649 127.005 116.318 128.166 116.772 128.955C116.823 129.048 116.847 129.141 116.842 129.233L112.141 129.396C112.025 129.215 111.974 128.992 112.011 128.755Z" fill="url(#paint17_linear)"/>
<path d="M116.842 129.238C116.833 129.507 116.619 129.749 116.322 129.758L112.976 129.851C112.623 129.86 112.317 129.674 112.145 129.405L116.842 129.238Z" fill="url(#paint18_linear)"/>
<path d="M84.2437 55.9928C87.2418 55.2082 92.7693 53.9778 97.1689 54.2378C98.1807 54.2982 98.9882 55.0967 99.0485 56.1089C99.7122 67.832 100.622 78.2366 102.334 84.2908C98.487 85.8137 94.6767 86.5194 90.9175 85.9669C88.1004 79.9312 85.636 72.9577 83.5337 65.0463C83.5337 65.0463 82.2991 58.7321 83.4965 56.6289C83.6775 56.3039 83.9235 56.0764 84.2437 55.9928Z" fill="#333333"/>
<path d="M91.4512 47.7795C91.4512 47.7795 92.2077 52.297 92.4351 54.3863C92.4722 54.7252 92.2958 55.0456 91.9895 55.2034C91.1634 55.6306 89.3952 56.3177 87.4739 55.6863C87.1583 55.5842 86.9494 55.2777 86.9587 54.9434L87.0887 48.9124L91.4512 47.7795Z" fill="url(#paint19_linear)"/>
<path d="M86.5174 42.7747C86.5174 42.7747 85.0555 46.1314 84.9581 47.8911C84.8606 49.6507 84.48 50.7928 86.5174 51.1503C88.5548 51.5032 90.2673 50.491 91.1955 48.736C91.1955 48.736 92.6528 46.0339 92.3233 44.9243C91.9984 43.8193 86.5174 42.7747 86.5174 42.7747Z" fill="url(#paint20_linear)"/>
<path d="M90.4992 47.4779H90.2439C90.2439 47.4779 91.3021 45.3004 90.3739 44.9197C89.441 44.5389 86.5915 44.5436 85.7932 43.2297C85.0274 41.9668 87.4542 41.0495 88.4798 40.5945C88.5448 40.5666 89.3343 42.5135 88.3411 40.639L88.4798 40.5945C90.1367 40.7895 90.3414 41.1034 90.3739 40.9874C91.7076 41.6299 88.8312 40.5415 88.8915 40.639C89.1375 41.029 87.5614 40.3093 89.3343 40.639C91.8451 41.1032 93.5066 42.12 93.5483 43.8564C93.553 43.9679 93.669 44.0282 93.7618 43.9679C93.9475 43.8564 93.2095 43.8007 93.6087 44.135C93.8918 44.3718 94.0728 44.6504 94.1145 45.0218C94.1656 45.4536 93.8407 45.9875 93.539 46.2707C93.3627 46.4379 93.2652 46.6607 93.2699 46.9068C93.2745 47.1575 93.423 47.3618 93.4509 47.6032C93.488 47.9143 93.1817 48.1279 92.9404 48.2671C92.6108 48.4575 92.2813 48.6525 91.9657 48.8707C91.7894 48.9914 91.432 49.3628 91.2 49.3025C91.135 49.2839 91.0932 49.2282 91.0932 49.1586L91.1861 47.6218C91.1907 47.5429 91.1257 47.4732 91.0468 47.4732H90.4992V47.4779Z" fill="url(#paint21_linear)"/>
<path d="M90.4344 47.7982C90.4344 47.7982 90.9914 45.6532 91.9521 46.2567C92.9127 46.8557 91.4555 48.6571 90.6804 48.7407L90.4344 47.7982Z" fill="url(#paint22_linear)"/>
<path d="M106.804 71.6112C108.284 75.7712 107.449 80.2283 107.449 80.2283L109.402 80.7483C109.402 80.7483 111.927 77.7444 111.347 71.0819C109.546 70.808 107.857 71.2305 106.804 71.6112Z" fill="#333333"/>
<path d="M111.352 71.082C111.287 70.3345 111.185 69.5406 111.032 68.6956C109.714 61.346 100.292 55.691 98.0785 54.456C97.8743 54.34 97.6237 54.4978 97.6283 54.73L97.9439 64.7213C103.188 65.4271 105.671 68.431 106.804 71.6067C107.857 71.2306 109.546 70.8081 111.352 71.082Z" fill="#333333"/>
<path d="M72.5217 71.7622C72.1783 71.6044 71.923 71.298 71.8302 70.9312C71.6446 70.2208 71.4821 69.1019 72.2479 68.893C73.3849 68.5866 74.9907 70.8755 74.9907 70.8755L75.6822 72.5562L76.4758 73.1179C75.6497 73.2108 74.1878 72.598 72.5217 71.7622Z" fill="url(#paint23_linear)"/>
<path d="M90.9127 86.0922C91.0287 86.7004 95.1313 112.394 95.3819 125.691C95.3866 125.914 95.5397 126.099 95.7439 126.132C96.2637 126.211 97.2801 126.308 98.264 126.113C98.3986 126.086 98.5007 125.969 98.51 125.821C98.6539 123.342 99.8048 102.393 98.394 92.5318C98.394 92.5318 110.061 118.894 111.83 126.164C111.871 126.341 112.025 126.462 112.192 126.452C112.693 126.424 113.732 126.327 114.554 126.002C114.851 125.886 115.018 125.552 114.944 125.222C113.955 120.872 107.031 90.9022 102.33 84.2954L90.9127 86.0922Z" fill="#333333"/>
<path opacity="0.25" d="M98.3942 92.1281C98.4313 92.1281 98.4731 92.1142 98.5009 92.0863C98.5613 92.0259 98.5613 91.9284 98.5056 91.8681L96.9416 90.271C96.8812 90.2106 96.7838 90.2106 96.7234 90.2663C96.6631 90.3267 96.6631 90.4242 96.7188 90.4845L98.2828 92.0817C98.3106 92.1095 98.3524 92.1281 98.3942 92.1281Z" fill="url(#paint24_linear)"/>
<path d="M91.4028 86.2499L87.1377 76.1425L86.4323 64.7351L95.1527 63.9458C97.0648 67.3536 99.0418 70.4829 101.181 72.9436C101.27 73.0457 101.334 73.1665 101.372 73.3011L104.101 83.8821L91.4028 86.2499Z" fill="#333333"/>
<path d="M86.1047 64.8512C85.1812 62.1723 84.8656 59.3913 84.2437 55.9927C85.1116 55.4449 85.4179 55.1849 86.2533 55.3706C86.8241 58.7784 87.4228 62.0005 88.17 64.9719L86.1047 64.8512Z" fill="#333333"/>
<path d="M92.7566 64.3188C92.7705 61.0178 92.8123 57.6749 93.4991 54.2903C94.5851 54.0907 95.0492 54.0071 95.7918 54.2903C94.961 57.8931 94.9518 61.4356 94.5294 64.667L92.7566 64.3188Z" fill="#333333"/>
<path d="M107.578 79.2534H105.165C105.165 79.2534 107.124 80.4281 107.189 81.663C107.254 82.898 106.409 85.4609 106.014 86.1573C105.583 86.9187 111.481 85.0198 109.402 79.2534H107.578Z" fill="url(#paint25_linear)"/>
<defs>
<linearGradient id="paint0_linear" x1="76.9454" y1="-18.4695" x2="69.1167" y2="59.4734" gradientUnits="userSpaceOnUse">
<stop stop-color="#FF928E"/>
<stop offset="1" stop-color="#FE7062"/>
</linearGradient>
<linearGradient id="paint1_linear" x1="13.5243" y1="46.9205" x2="5.69558" y2="124.863" gradientUnits="userSpaceOnUse">
<stop stop-color="#E1473D"/>
<stop offset="1" stop-color="#E9605A"/>
</linearGradient>
<linearGradient id="paint2_linear" x1="123.791" y1="57.9958" x2="115.963" y2="135.939" gradientUnits="userSpaceOnUse">
<stop stop-color="#E1473D"/>
<stop offset="1" stop-color="#E9605A"/>
</linearGradient>
<linearGradient id="paint3_linear" x1="50.1708" y1="56.7755" x2="28.6502" y2="111.858" gradientUnits="userSpaceOnUse">
<stop stop-color="#09005D"/>
<stop offset="1" stop-color="#1A0F91"/>
</linearGradient>
<linearGradient id="paint4_linear" x1="93.0729" y1="-106.563" x2="69.9347" y2="-28.822" gradientUnits="userSpaceOnUse">
<stop stop-color="#4F52FF"/>
<stop offset="1" stop-color="#4042E2"/>
</linearGradient>
<linearGradient id="paint5_linear" x1="80.4002" y1="68.5661" x2="58.8801" y2="123.668" gradientUnits="userSpaceOnUse">
<stop stop-color="#09005D"/>
<stop offset="1" stop-color="#1A0F91"/>
</linearGradient>
<linearGradient id="paint6_linear" x1="118.442" y1="-99.012" x2="95.3042" y2="-21.2711" gradientUnits="userSpaceOnUse">
<stop stop-color="#4F52FF"/>
<stop offset="1" stop-color="#4042E2"/>
</linearGradient>
<linearGradient id="paint7_linear" x1="126.069" y1="58.225" x2="118.24" y2="136.167" gradientUnits="userSpaceOnUse">
<stop stop-color="#E1473D"/>
<stop offset="1" stop-color="#E9605A"/>
</linearGradient>
<linearGradient id="paint8_linear" x1="19.8556" y1="116.371" x2="41.4708" y2="116.371" gradientUnits="userSpaceOnUse">
<stop stop-color="#00365D"/>
<stop offset="1" stop-color="#1A0F91"/>
</linearGradient>
<linearGradient id="paint9_linear" x1="55.5307" y1="32.358" x2="17.329" y2="161.316" gradientUnits="userSpaceOnUse">
<stop stop-color="#4F52FF"/>
<stop offset="1" stop-color="#4042E2"/>
</linearGradient>
<linearGradient id="paint10_linear" x1="84.9323" y1="116.901" x2="106.547" y2="116.901" gradientUnits="userSpaceOnUse">
<stop stop-color="#09005D"/>
<stop offset="1" stop-color="#1A0F91"/>
</linearGradient>
<linearGradient id="paint11_linear" x1="116.224" y1="47.6957" x2="78.0224" y2="176.654" gradientUnits="userSpaceOnUse">
<stop stop-color="#4F52FF"/>
<stop offset="1" stop-color="#4042E2"/>
</linearGradient>
<linearGradient id="paint12_linear" x1="82.189" y1="53.8176" x2="74.3604" y2="131.76" gradientUnits="userSpaceOnUse">
<stop stop-color="#FF928E"/>
<stop offset="1" stop-color="#FE7062"/>
</linearGradient>
<linearGradient id="paint13_linear" x1="7.6681" y1="46.3325" x2="-0.160621" y2="124.276" gradientUnits="userSpaceOnUse">
<stop stop-color="#E1473D"/>
<stop offset="1" stop-color="#E9605A"/>
</linearGradient>
<linearGradient id="paint14_linear" x1="79.6103" y1="66.0809" x2="85.4407" y2="95.0208" gradientUnits="userSpaceOnUse">
<stop stop-color="#FEBBBA"/>
<stop offset="1" stop-color="#FF928E"/>
</linearGradient>
<linearGradient id="paint15_linear" x1="99.0372" y1="127.314" x2="88.6932" y2="127.314" gradientUnits="userSpaceOnUse">
<stop stop-color="#4F52FF"/>
<stop offset="1" stop-color="#4042E2"/>
</linearGradient>
<linearGradient id="paint16_linear" x1="99.037" y1="129.175" x2="88.693" y2="129.175" gradientUnits="userSpaceOnUse">
<stop stop-color="#09005D"/>
<stop offset="1" stop-color="#1A0F91"/>
</linearGradient>
<linearGradient id="paint17_linear" x1="116.842" y1="127.34" x2="111.998" y2="127.34" gradientUnits="userSpaceOnUse">
<stop stop-color="#4F52FF"/>
<stop offset="1" stop-color="#4042E2"/>
</linearGradient>
<linearGradient id="paint18_linear" x1="116.841" y1="129.542" x2="112.142" y2="129.542" gradientUnits="userSpaceOnUse">
<stop stop-color="#09005D"/>
<stop offset="1" stop-color="#1A0F91"/>
</linearGradient>
<linearGradient id="paint19_linear" x1="90.3778" y1="58.6362" x2="89.0863" y2="50.6757" gradientUnits="userSpaceOnUse">
<stop stop-color="#FEBBBA"/>
<stop offset="1" stop-color="#FF928E"/>
</linearGradient>
<linearGradient id="paint20_linear" x1="86.2097" y1="45.7301" x2="94.5593" y2="52.1163" gradientUnits="userSpaceOnUse">
<stop stop-color="#FEBBBA"/>
<stop offset="1" stop-color="#FF928E"/>
</linearGradient>
<linearGradient id="paint21_linear" x1="92.4877" y1="41.0081" x2="84.9256" y2="50.7406" gradientUnits="userSpaceOnUse">
<stop stop-color="#09005D"/>
<stop offset="1" stop-color="#1A0F91"/>
</linearGradient>
<linearGradient id="paint22_linear" x1="87.2452" y1="44.3764" x2="95.5947" y2="50.7625" gradientUnits="userSpaceOnUse">
<stop stop-color="#FEBBBA"/>
<stop offset="1" stop-color="#FF928E"/>
</linearGradient>
<linearGradient id="paint23_linear" x1="72.9465" y1="66.0761" x2="78.7772" y2="95.0174" gradientUnits="userSpaceOnUse">
<stop stop-color="#FEBBBA"/>
<stop offset="1" stop-color="#FF928E"/>
</linearGradient>
<linearGradient id="paint24_linear" x1="91.6848" y1="83.509" x2="102.41" y2="97.3703" gradientUnits="userSpaceOnUse">
<stop stop-color="#5AB6FF"/>
<stop offset="1" stop-color="#2F68E3"/>
</linearGradient>
<linearGradient id="paint25_linear" x1="103.497" y1="76.6806" x2="115.36" y2="93.8094" gradientUnits="userSpaceOnUse">
<stop stop-color="#FEBBBA"/>
<stop offset="1" stop-color="#FF928E"/>
</linearGradient>
</defs>
</svg>
