<svg width="100" height="100" viewBox="0 0 100 100" fill="none" xmlns="http://www.w3.org/2000/svg">
<path d="M77.4784 75.458C75.7603 77.3486 74.1385 78.566 72.8537 79.5286C57.7701 90.844 39.9214 87.5472 36.1272 86.7419C30.5247 85.5528 19.6987 83.2532 11.8695 73.6271C0.0265532 59.0653 1.871 36.1231 11.0571 20.9793C12.7361 18.2079 21.6153 2.83443 39.6566 0.368138C50.5729 -1.12296 63.3005 1.88441 72.5167 9.95963C91.8639 26.906 90.4888 61.1415 77.4784 75.458Z" fill="#E8F0F5"/>
<path d="M54.4977 97.8785C54.6921 97.992 54.9333 97.9595 55.0967 97.8055L59.7568 93.4121C62.5809 94.2389 65.5529 94.5956 68.5714 94.4334L72.1891 99.7753C72.3136 99.9617 72.547 100.043 72.757 99.9779L79.9923 97.7893C80.2024 97.7245 80.3502 97.5299 80.3657 97.303L80.6769 90.7696C83.3065 89.2294 85.6327 87.2678 87.601 84.99L93.7938 86.1005C94.0116 86.141 94.2295 86.0276 94.3306 85.833L97.9638 78.9511C98.0727 78.7484 98.0416 78.4971 97.8938 78.3269L93.6771 73.4714C94.4706 70.529 94.813 67.4325 94.6574 64.2874L99.7843 60.5181C99.9632 60.3884 100.041 60.1452 99.9788 59.9264L97.8782 52.3878C97.816 52.169 97.6293 52.0149 97.4114 51.9987L91.1409 51.6745C89.6627 48.9347 87.78 46.511 85.5938 44.4602L86.6597 38.0078C86.6986 37.7809 86.5896 37.5539 86.4029 37.4485L79.7978 33.663C79.6033 33.5495 79.3621 33.582 79.1988 33.736L74.5386 38.1294C71.7145 37.3026 68.7426 36.9459 65.724 37.1081L62.1064 31.7662C61.9819 31.5798 61.7485 31.4987 61.5384 31.5636L54.3032 33.7522C54.0931 33.817 53.9453 34.0116 53.9297 34.2386L53.6185 40.772C50.9889 42.3121 48.6627 44.2737 46.6944 46.5515L40.5017 45.441C40.2838 45.4005 40.066 45.514 39.9648 45.7085L36.3316 52.5905C36.2227 52.7931 36.2538 53.0444 36.4017 53.2146L40.6183 58.0701C39.8248 61.0126 39.4825 64.109 39.6381 67.2542L34.5111 71.0234C34.3322 71.1531 34.2544 71.3963 34.3167 71.6152L36.4172 79.1537C36.4795 79.3726 36.6662 79.5266 36.884 79.5428L43.1546 79.867C44.6328 82.6068 46.5155 85.0305 48.7016 87.0813L47.6358 93.5337C47.5969 93.7607 47.7058 93.9876 47.8925 94.093L54.4977 97.8785Z" fill="#91CEFA"/>
<path d="M69.9721 73.0986C66.5489 74.5415 62.5268 73.1797 60.6051 69.7671C58.4968 66.014 59.7104 61.1667 63.3125 58.9699C65.0552 57.9 67.1013 57.6081 69.054 58.1431C71.0146 58.6781 72.6561 59.9751 73.6753 61.7908C75.7836 65.5439 74.57 70.3912 70.9679 72.5879C70.6489 72.7825 70.3144 72.9527 69.9721 73.0986ZM64.9852 60.1534C64.7207 60.2669 64.4639 60.3966 64.215 60.5506C61.4531 62.2366 60.5195 65.9492 62.1378 68.8349C63.756 71.7125 67.3191 72.6852 70.0888 70.9992C72.8506 69.3131 73.7842 65.6006 72.166 62.7149C71.3802 61.3207 70.1199 60.3236 68.6262 59.9183C67.3969 59.586 66.1288 59.6752 64.9852 60.1534Z" fill="#BDE5FB"/>
<path d="M74.2118 83.6121C73.6205 83.8553 73.0215 84.0742 72.3991 84.2606C72.2046 84.3173 72.0101 84.3741 71.8156 84.4308C70.8509 84.6902 69.8629 84.8685 68.8748 84.9577C68.8593 84.9577 68.8515 84.9577 68.8359 84.9577C68.797 84.9577 68.7581 84.9658 68.7192 84.9658C68.6414 84.9739 68.5714 84.982 68.4936 84.982C68.2991 84.9982 68.1202 84.8767 68.0501 84.6983C68.0346 84.6578 68.019 84.6092 68.019 84.5605C68.0035 84.3092 68.1824 84.0904 68.4314 84.0661C69.6839 83.9769 70.9365 83.7418 72.1501 83.3771C78.1873 81.5532 82.5907 76.6572 84.2401 70.7885C85.1581 67.5299 85.2281 63.9633 84.2479 60.4696C84.0767 59.8536 83.8744 59.2537 83.6488 58.6701C82.1239 54.7387 79.3699 51.4963 75.76 49.4212C71.6056 47.0381 66.8132 46.4869 62.2619 47.8649C52.8638 50.7101 47.4413 60.9884 50.172 70.7723C50.3432 71.3721 50.5377 71.972 50.7633 72.5475C51.7358 75.0603 53.2217 77.3138 55.1278 79.162C55.1745 79.2106 55.2134 79.2673 55.2367 79.3241C55.2989 79.4862 55.2678 79.6726 55.1511 79.8104C54.9877 79.9969 54.7077 80.005 54.5287 79.8348C52.5293 77.8974 50.9655 75.5305 49.9464 72.8961C49.713 72.2881 49.5029 71.6639 49.324 71.0317C46.461 60.7533 52.1636 49.9643 62.0207 46.9813C66.7976 45.5385 71.8312 46.114 76.1879 48.6187C79.9845 50.7911 82.8708 54.1956 84.4735 58.3297C84.7146 58.9457 84.9169 59.5699 85.1036 60.2183C86.4885 65.1954 85.9361 70.44 83.5321 74.9874C81.4471 78.935 78.1796 81.9423 74.2118 83.6121Z" fill="#BDE5FB"/>
<path d="M62.2618 60.3469C62.2618 68.0594 56.2804 74.1778 49.0677 74.1778H15.1941C7.98791 74.1778 2 68.0662 2 60.3469V25.0617C2 17.3491 7.98144 11.2307 15.1941 11.2307H49.0677C56.2739 11.2307 62.2618 17.3424 62.2618 25.0617V60.3469Z" fill="white" stroke="#459EDC" stroke-width="4"/>
<path d="M19.7492 52.1659C19.5138 51.9013 19.2545 51.6999 18.984 51.5497L34.2618 37.9527L20.2022 52.8347C20.0887 52.6043 19.94 52.3792 19.7492 52.1659Z" fill="white" stroke="#459EDC" stroke-width="4"/>
<path d="M47.9679 33.0377C45.6671 35.271 42.4736 35.1267 40.2013 32.8521C40.6377 33.204 41.1654 33.4531 41.7561 33.5569L41.7624 33.558L44.0186 33.9471L44.0262 33.9484L44.0338 33.9496C45.1031 34.1256 46.1823 33.7877 46.9628 33.0326L46.9643 33.0311L49.6303 30.4463C49.291 31.4006 48.7346 32.2935 47.9679 33.0377ZM47.9679 33.0377L49.3609 34.4728L47.9679 33.0377ZM38.6934 28.0423L38.694 28.0498L38.6947 28.0572L38.9125 30.4317C38.9125 30.4319 38.9125 30.4321 38.9125 30.4323C38.9558 30.9051 39.0924 31.3564 39.3066 31.7628C37.6315 29.2586 37.8352 26.0846 40.041 23.9435L40.0413 23.9433C40.8154 23.1916 41.7036 22.6848 42.6225 22.409L39.7469 25.197C39.7467 25.1972 39.7465 25.1974 39.7463 25.1976C38.9623 25.9565 38.6073 27.0194 38.6934 28.0423Z" fill="white" stroke="#459EDC" stroke-width="4"/>
<path d="M48.3721 33.4918C46.0713 35.7251 42.8777 35.5808 40.6055 33.3062C41.0418 33.6581 41.5696 33.9072 42.1603 34.011L42.1666 34.0121L44.4228 34.4012L44.4304 34.4025L44.438 34.4037C45.5073 34.5797 46.5865 34.2418 47.367 33.4867L47.3685 33.4852L50.0346 30.9004C49.6953 31.8547 49.1388 32.7476 48.3721 33.4918ZM48.3721 33.4918L49.7651 34.9269L48.3721 33.4918ZM39.0976 28.4964L39.0982 28.5039L39.0989 28.5113L39.3167 30.8858C39.3167 30.8859 39.3167 30.886 39.3167 30.8861C39.3167 30.8862 39.3167 30.8863 39.3167 30.8864C39.3604 31.3628 39.4987 31.8173 39.7157 32.226C38.0362 29.7265 38.2361 26.5419 40.4452 24.3976L40.4454 24.3974C41.2196 23.6457 42.1078 23.1389 43.0267 22.8631L40.1511 25.6511C40.1509 25.6513 40.1506 25.6516 40.1503 25.6518C39.3665 26.4107 39.0115 27.4736 39.0976 28.4964Z" fill="url(#paint0_linear)" stroke="#459EDC" stroke-width="4"/>
<path d="M34.4862 38.4096L20.521 53.1915C20.4075 52.9612 20.2589 52.7361 20.0681 52.5228C19.8357 52.2616 19.58 52.062 19.3133 51.9124L34.4862 38.4096Z" fill="url(#paint1_linear)" stroke="#459EDC" stroke-width="4"/>
<defs>
<linearGradient id="paint0_linear" x1="698.976" y1="-329.596" x2="655.892" y2="-307.859" gradientUnits="userSpaceOnUse">
<stop stop-color="#09005D"/>
<stop offset="1" stop-color="#1A0F91"/>
</linearGradient>
<linearGradient id="paint1_linear" x1="763.156" y1="-407.012" x2="709.369" y2="-383.695" gradientUnits="userSpaceOnUse">
<stop stop-color="#09005D"/>
<stop offset="1" stop-color="#1A0F91"/>
</linearGradient>
</defs>
</svg>
