<svg width="68" height="54" viewBox="0 0 68 54" fill="none" xmlns="http://www.w3.org/2000/svg">
<path d="M40.4015 49.5469H27.5984C26.4982 49.5469 25.6062 50.4388 25.6062 51.5391C25.6062 52.6393 26.4982 53.5312 27.5984 53.5312H40.4015C41.5017 53.5312 42.3937 52.6393 42.3937 51.5391C42.3937 50.4388 41.5017 49.5469 40.4015 49.5469Z" fill="#459EDC"/>
<path d="M39.6032 37.2538C40.0215 36.4144 40.258 35.4685 40.258 34.467C40.258 31.0108 37.4562 28.209 34.0001 28.209C32.9983 28.209 32.0522 28.4456 31.2127 28.8641L21.829 19.48C21.0511 18.702 19.7897 18.702 19.0116 19.48C18.2336 20.2579 18.2336 21.5192 19.0116 22.2973L28.396 31.6821C27.9783 32.521 27.7422 33.4662 27.7422 34.467C27.7422 37.9231 30.544 40.725 34.0002 40.725C35.0012 40.725 35.9466 40.4887 36.7855 40.0708L38.993 42.2786C39.771 43.0566 41.0322 43.0569 41.8104 42.2789C42.5884 41.501 42.5885 40.2397 41.8105 39.4615L39.6032 37.2538ZM34.0001 36.7406C32.7464 36.7406 31.7264 35.7207 31.7264 34.4671C31.7264 33.2135 32.7463 32.1935 34.0001 32.1935C35.2538 32.1935 36.2737 33.2135 36.2737 34.4671C36.2737 35.7207 35.2537 36.7406 34.0001 36.7406Z" fill="#459EDC"/>
<path d="M34 0.468262C15.2523 0.468262 0 15.7206 0 34.4683C0 40.4435 1.57542 46.3227 4.55613 51.4705C5.10677 52.4215 6.3236 52.7467 7.27534 52.1978C7.27573 52.1975 12.8204 48.9968 12.8204 48.9968C13.7732 48.4466 14.0996 47.2284 13.5495 46.2754C12.9994 45.3226 11.7813 44.9958 10.8282 45.5463L7.06536 47.7187C5.33694 44.2097 4.31362 40.3788 4.05317 36.4606H8.39375C9.49397 36.4606 10.3859 35.5686 10.3859 34.4684C10.3859 33.3682 9.49397 32.4762 8.39375 32.4762H4.05211C4.31667 28.4592 5.37452 24.6558 7.07107 21.2213L10.8283 23.3905C11.7814 23.941 12.9998 23.6142 13.5497 22.6614C14.0998 21.7084 13.7733 20.49 12.8205 19.94L9.06791 17.7733C11.252 14.5223 14.0542 11.7201 17.3052 9.53604L19.4716 13.2883C20.0217 14.2412 21.2402 14.5679 22.193 14.0174C23.1458 13.4672 23.4722 12.2489 22.9221 11.2961L20.753 7.5392C24.1875 5.84278 27.991 4.7856 32.0078 4.52064V8.86214C32.0078 9.96236 32.8998 10.8543 34 10.8543C35.1002 10.8543 35.9922 9.96236 35.9922 8.86214V4.52064C40.009 4.7856 43.8125 5.84292 47.247 7.5392L45.0779 11.2961C44.5278 12.2489 44.8542 13.4673 45.807 14.0174C46.7598 14.5679 47.9783 14.2412 48.5284 13.2883L50.6948 9.53604C53.9458 11.72 56.7481 14.5222 58.9321 17.7733L55.1796 19.9398C54.2268 20.4899 53.9004 21.7082 54.4505 22.6611C55.0004 23.6139 56.2187 23.9407 57.1718 23.3902L60.9291 21.221C62.6255 24.6555 63.6835 28.4589 63.948 32.4759H59.6062C58.506 32.4759 57.6141 33.3679 57.6141 34.4681C57.6141 35.5683 58.506 36.4603 59.6062 36.4603H63.9468C63.6864 40.3786 62.6631 44.2094 60.9346 47.7184L57.1718 45.546C56.2187 44.9955 55.0006 45.3224 54.4505 46.2752C53.9004 47.2281 54.2268 48.4465 55.1796 48.9965C55.1796 48.9965 60.7243 52.1973 60.7247 52.1975C61.6765 52.7464 62.8932 52.4213 63.4439 51.4703C66.4246 46.3227 68 40.4436 68 34.4683C68 15.7206 52.7477 0.468262 34 0.468262Z" fill="#459EDC"/>
</svg>
