<svg width="61" height="40" viewBox="0 0 61 40" fill="none" xmlns="http://www.w3.org/2000/svg">
<path d="M49.8502 6.35207L49.7862 13.4999H47.1145L40.802 6.36675H32.2201V3.58166H40.5773V0H20.2812V3.58166H28.6384V6.36675H19.4706L15.3408 11.2035H6.9736V20.9023H3.58166V13.9138H0V31.7418H3.58166V24.484H6.9736V34.6603H15.3948L19.6313 39.1444L40.7931 39.132L47.1619 32.0576H49.7853L49.8491 39.61H60.8585V6.44268L49.8502 6.35207ZM57.2769 36.0283H53.4007L53.3368 28.476H45.5673L39.1975 35.5513L21.1739 35.5619L16.9381 31.0787H10.5553V14.7852H16.9922L21.122 9.94841H39.1888L45.5014 17.0815H53.3359L53.3996 9.96309L57.2769 9.99497V36.0283Z" fill="#459EDC"/>
<path d="M28.7434 14.0566H32.3251V24.7039H28.7434V14.0566Z" fill="#459EDC"/>
<path d="M28.8324 27.4595H32.414V31.3778H28.8324V27.4595Z" fill="#459EDC"/>
</svg>
